<svg width="51" height="50" viewBox="0 0 51 50" fill="none" xmlns="http://www.w3.org/2000/svg">
<rect width="50" height="50" rx="25" fill="#E0E0E0"/>
<mask id="mask0_10327_287" style="mask-type:alpha" maskUnits="userSpaceOnUse" x="0" y="0" width="51" height="50">
<circle cx="25.3459" cy="25" r="25" fill="#E0E0E0"/>
</mask>
<g mask="url(#mask0_10327_287)">
<path d="M25.3457 33.001C30.8686 33.001 35.3457 28.5238 35.3457 23.001C35.3457 17.4781 30.8686 13.001 25.3457 13.001C19.8229 13.001 15.3457 17.4781 15.3457 23.001C15.3457 28.5238 19.8229 33.001 25.3457 33.001Z" fill="#C2C2C2"/>
<path d="M25.3465 38C15.3265 38 7.1665 44.72 7.1665 53C7.1665 53.56 7.6065 54 8.1665 54H42.5265C43.0865 54 43.5265 53.56 43.5265 53C43.5265 44.72 35.3665 38 25.3465 38Z" fill="#C2C2C2"/>
</g>
</svg>
