<svg width="48" height="49" viewBox="0 0 48 49" fill="none" xmlns="http://www.w3.org/2000/svg">
<rect y="0.5" width="48" height="48" rx="24" fill="#FFE0E5"/>
<path d="M21 14.5C18.38 14.5 16.25 16.63 16.25 19.25C16.25 21.82 18.26 23.9 20.88 23.99C20.96 23.98 21.04 23.98 21.1 23.99C21.12 23.99 21.13 23.99 21.15 23.99C21.16 23.99 21.16 23.99 21.17 23.99C23.73 23.9 25.74 21.82 25.75 19.25C25.75 16.63 23.62 14.5 21 14.5Z" fill="url(#paint0_linear_10327_780)"/>
<path d="M26.08 26.6499C23.29 24.7899 18.74 24.7899 15.93 26.6499C14.66 27.4999 13.96 28.6499 13.96 29.8799C13.96 31.1099 14.66 32.2499 15.92 33.0899C17.32 34.0299 19.16 34.4999 21 34.4999C22.84 34.4999 24.68 34.0299 26.08 33.0899C27.34 32.2399 28.04 31.0999 28.04 29.8599C28.03 28.6299 27.34 27.4899 26.08 26.6499Z" fill="url(#paint1_linear_10327_780)"/>
<path d="M31.99 19.8401C32.15 21.7801 30.77 23.4801 28.86 23.7101C28.85 23.7101 28.85 23.7101 28.84 23.7101H28.81C28.75 23.7101 28.69 23.7101 28.64 23.7301C27.67 23.7801 26.78 23.4701 26.11 22.9001C27.14 21.9801 27.73 20.6001 27.61 19.1001C27.54 18.2901 27.26 17.5501 26.84 16.9201C27.22 16.7301 27.66 16.6101 28.11 16.5701C30.07 16.4001 31.82 17.8601 31.99 19.8401Z" fill="url(#paint2_linear_10327_780)"/>
<path d="M33.99 29.0904C33.91 30.0604 33.29 30.9004 32.25 31.4704C31.25 32.0204 29.99 32.2804 28.74 32.2504C29.46 31.6004 29.88 30.7904 29.96 29.9304C30.06 28.6904 29.47 27.5004 28.29 26.5504C27.62 26.0204 26.84 25.6004 25.99 25.2904C28.2 24.6504 30.98 25.0804 32.69 26.4604C33.61 27.2004 34.08 28.1304 33.99 29.0904Z" fill="url(#paint3_linear_10327_780)"/>
<defs>
<linearGradient id="paint0_linear_10327_780" x1="30.9448" y1="29.6543" x2="19.3357" y2="12.4213" gradientUnits="userSpaceOnUse">
<stop stop-color="#FFC79F"/>
<stop offset="0.528793" stop-color="#FF5050"/>
<stop offset="1" stop-color="#ED0226"/>
</linearGradient>
<linearGradient id="paint1_linear_10327_780" x1="35.7391" y1="40.018" x2="26.7037" y2="19.6121" gradientUnits="userSpaceOnUse">
<stop stop-color="#FFC79F"/>
<stop offset="0.528793" stop-color="#FF5050"/>
<stop offset="1" stop-color="#ED0226"/>
</linearGradient>
<linearGradient id="paint2_linear_10327_780" x1="35.2248" y1="28.0201" x2="25.9291" y2="16.7052" gradientUnits="userSpaceOnUse">
<stop stop-color="#FFC79F"/>
<stop offset="0.528793" stop-color="#FF5050"/>
<stop offset="1" stop-color="#ED0226"/>
</linearGradient>
<linearGradient id="paint3_linear_10327_780" x1="38.3814" y1="36.5817" x2="29.8657" y2="22.6337" gradientUnits="userSpaceOnUse">
<stop stop-color="#FFC79F"/>
<stop offset="0.528793" stop-color="#FF5050"/>
<stop offset="1" stop-color="#ED0226"/>
</linearGradient>
</defs>
</svg>
