<svg width="51" height="50" viewBox="0 0 51 50" fill="none" xmlns="http://www.w3.org/2000/svg">
<rect width="50" height="50" rx="25" fill="#E0E0E0"/>
<mask id="mask0_10327_280" style="mask-type:alpha" maskUnits="userSpaceOnUse" x="0" y="0" width="51" height="50">
<circle cx="25.3459" cy="25" r="25" fill="#E0E0E0"/>
</mask>
<g mask="url(#mask0_10327_280)">
<path d="M34.7322 34.2664C39.0428 34.2664 42.5373 30.7719 42.5373 26.4613C42.5373 22.1507 39.0428 18.6562 34.7322 18.6562C30.4216 18.6562 26.9271 22.1507 26.9271 26.4613C26.9271 30.7719 30.4216 34.2664 34.7322 34.2664Z" fill="#9E9E9E"/>
<path d="M34.7328 38.1681C26.9121 38.1681 20.5432 43.4132 20.5432 49.8757C20.5432 50.3128 20.8866 50.6562 21.3237 50.6562H48.1419C48.579 50.6562 48.9224 50.3128 48.9224 49.8757C48.9224 43.4132 42.5535 38.1681 34.7328 38.1681Z" fill="#9E9E9E"/>
<path d="M17.7321 33.2176C22.5816 33.2176 26.5128 29.2864 26.5128 24.4369C26.5128 19.5875 22.5816 15.6562 17.7321 15.6562C12.8827 15.6562 8.95144 19.5875 8.95144 24.4369C8.95144 29.2864 12.8827 33.2176 17.7321 33.2176Z" fill="#C2C2C2"/>
<path d="M17.7328 37.6071C8.93458 37.6071 1.76953 43.5078 1.76953 50.7782C1.76953 51.2699 2.15588 51.6562 2.6476 51.6562H32.8181C33.3098 51.6562 33.6961 51.2699 33.6961 50.7782C33.6961 43.5078 26.5311 37.6071 17.7328 37.6071Z" fill="#C2C2C2"/>
</g>
</svg>
