<svg width="72" height="72" viewBox="0 0 72 72" fill="none" xmlns="http://www.w3.org/2000/svg">
<rect width="72" height="72" rx="36" fill="url(#paint0_linear_10317_163)"/>
<path d="M41.3334 22.667H30.6667C25.3334 22.667 22.6667 25.3337 22.6667 30.667V48.0003C22.6667 48.7337 23.2667 49.3337 24.0001 49.3337H41.3334C46.6667 49.3337 49.3334 46.667 49.3334 41.3337V30.667C49.3334 25.3337 46.6667 22.667 41.3334 22.667ZM40.6667 37.0003H37.0001V40.667C37.0001 41.2137 36.5467 41.667 36.0001 41.667C35.4534 41.667 35.0001 41.2137 35.0001 40.667V37.0003H31.3334C30.7867 37.0003 30.3334 36.547 30.3334 36.0003C30.3334 35.4537 30.7867 35.0003 31.3334 35.0003H35.0001V31.3337C35.0001 30.787 35.4534 30.3337 36.0001 30.3337C36.5467 30.3337 37.0001 30.787 37.0001 31.3337V35.0003H40.6667C41.2134 35.0003 41.6667 35.4537 41.6667 36.0003C41.6667 36.547 41.2134 37.0003 40.6667 37.0003Z" fill="white"/>
<defs>
<linearGradient id="paint0_linear_10317_163" x1="111.371" y1="114.975" x2="23.2592" y2="-15.685" gradientUnits="userSpaceOnUse">
<stop stop-color="#FFC79F"/>
<stop offset="0.528793" stop-color="#FF5050"/>
<stop offset="1" stop-color="#ED0226"/>
</linearGradient>
</defs>
</svg>
