<svg width="121" height="120" viewBox="0 0 121 120" fill="none" xmlns="http://www.w3.org/2000/svg">
<circle cx="60.5" cy="60" r="60" fill="#FFE0E5"/>
<mask id="mask0_10597_4147" style="mask-type:alpha" maskUnits="userSpaceOnUse" x="0" y="0" width="121" height="120">
<circle cx="60.5" cy="60" r="60" fill="#D9D9D9"/>
</mask>
<g mask="url(#mask0_10597_4147)">
<path d="M85.1667 131.334H35.1667C26.8817 131.334 20.1667 124.619 20.1667 116.334V66.334C20.1667 58.049 26.8817 51.334 35.1667 51.334H85.1667C93.4517 51.334 100.167 58.049 100.167 66.334V116.334C100.167 124.619 93.4517 131.334 85.1667 131.334Z" fill="white"/>
<path d="M41.5605 109.454C44.1725 111.745 47.2291 114.235 50.0944 116.5V113.928C50.0944 110.557 51.7874 107.575 54.3675 105.785C53.399 103.273 50.9535 101.543 48.1847 101.543C44.5322 101.543 41.5605 104.515 41.5605 108.167V109.454Z" fill="#ED0226"/>
<path d="M88 92.9906C88 83.5638 80.3582 75.9219 70.9314 75.9219C66.772 75.9219 62.9613 77.4112 60 79.8838C57.0387 77.4113 53.228 75.9219 49.0686 75.9219C39.6418 75.922 32 83.5639 32 92.9906C32 97.0143 33.492 100.636 35.7214 103.631C36.3272 104.444 37.2589 105.446 38.4097 106.563C38.8832 103.665 40.6185 101.185 43.0319 99.709C41.1848 98.2074 40.0019 95.9187 40.0019 93.3582C40.0019 88.8462 43.6727 85.1753 48.1849 85.1753C52.1856 85.1753 55.5227 88.0621 56.2282 91.8615C57.3578 91.2721 58.6401 90.9368 60 90.9368C61.3599 90.9368 62.6422 91.2721 63.7718 91.8615C64.4774 88.0622 67.8144 85.1753 71.8151 85.1753C76.3272 85.1753 79.998 88.8462 79.998 93.3582C79.998 95.9187 78.8151 98.2072 76.9681 99.709C79.3815 101.185 81.1168 103.665 81.5903 106.563C82.7411 105.446 83.6728 104.444 84.2786 103.631C86.508 100.636 88 97.0143 88 92.9906Z" fill="#ED0226"/>
<path d="M53.0867 93.3588C53.0867 90.656 50.8878 88.4571 48.185 88.4571C45.4821 88.4571 43.2832 90.656 43.2832 93.3588C43.2832 96.0617 45.4821 98.2605 48.185 98.2605C50.8878 98.2605 53.0867 96.0617 53.0867 93.3588ZM78.4394 109.453V108.166C78.4394 104.513 75.4679 101.542 71.8153 101.542C69.0465 101.542 66.601 103.271 65.6325 105.784C68.2125 107.574 69.9055 110.556 69.9055 113.927V116.499C72.7708 114.234 75.8274 111.744 78.4394 109.453ZM71.8153 88.457C69.1125 88.457 66.9136 90.6559 66.9136 93.3587C66.9136 96.0615 69.1124 98.2604 71.8153 98.2604C74.5182 98.2604 76.717 96.0615 76.717 93.3587C76.717 90.656 74.5181 88.457 71.8153 88.457ZM66.6243 119.063V113.927C66.6243 110.275 63.6528 107.303 60.0002 107.303C56.3476 107.303 53.376 110.275 53.376 113.927V119.063C57.1516 121.982 60.0001 124.08 60.0001 124.08C60.0001 124.08 62.8484 121.982 66.6243 119.063Z" fill="#ED0226"/>
<path d="M60.7805 103.96C63.4525 103.525 65.2658 101.006 64.8306 98.3343C64.3955 95.6624 61.8767 93.8492 59.2047 94.2843C56.5327 94.7195 54.7195 97.2383 55.1546 99.9102C55.5897 102.582 58.1086 104.395 60.7805 103.96Z" fill="#ED0226"/>
<rect x="46.8333" y="33.334" width="26.6667" height="26.6667" rx="13.3333" fill="#ED0226"/>
<path d="M55.4656 49.9476L65.7309 41.334L67.4536 43.387L57.1883 52.0007L55.4656 49.9476Z" fill="white"/>
<path d="M57.5281 48.2195L54.9251 45.145L52.8796 46.8768L55.4827 49.9513L57.5281 48.2195Z" fill="white"/>
</g>
</svg>
