<svg width="137" height="137" viewBox="0 0 137 137" fill="none" xmlns="http://www.w3.org/2000/svg">
<rect x="0.5" y="0.5" width="136" height="136" rx="68" fill="#EDEDED"/>
<path d="M78.5 58.4997C77.4833 58.4997 76.55 57.9163 76.0833 57.0163L74.8833 54.5997C74.1167 53.083 72.1167 51.833 70.4167 51.833H66.6C64.8833 51.833 62.8833 53.083 62.1167 54.5997L60.9167 57.0163C60.45 57.9163 59.5167 58.4997 58.5 58.4997C54.8833 58.4997 52.0167 61.5497 52.25 65.1497L53.1167 78.9163C53.3167 82.3497 55.1667 85.1663 59.7667 85.1663H77.2333C81.8333 85.1663 83.6667 82.3497 83.8833 78.9163L84.75 65.1497C84.9833 61.5497 82.1167 58.4997 78.5 58.4997ZM66 60.583H71C71.6833 60.583 72.25 61.1497 72.25 61.833C72.25 62.5163 71.6833 63.083 71 63.083H66C65.3167 63.083 64.75 62.5163 64.75 61.833C64.75 61.1497 65.3167 60.583 66 60.583ZM68.5 78.6997C65.4 78.6997 62.8667 76.183 62.8667 73.0663C62.8667 69.9497 65.3833 67.433 68.5 67.433C71.6167 67.433 74.1333 69.9497 74.1333 73.0663C74.1333 76.183 71.6 78.6997 68.5 78.6997Z" fill="#C2C2C2"/>
</svg>
