<svg width="140" height="140" viewBox="0 0 140 140" fill="none" xmlns="http://www.w3.org/2000/svg">
<circle cx="70" cy="70" r="70" fill="#FFE0E5"/>
<mask id="mask0_10315_1254" style="mask-type:alpha" maskUnits="userSpaceOnUse" x="0" y="0" width="140" height="140">
<circle cx="70" cy="70" r="70" fill="#D9D9D9"/>
</mask>
<g mask="url(#mask0_10315_1254)">
<path d="M105.901 69.5137V168.486C105.901 174.293 101.194 179 95.3868 179H45.5137C39.7069 179 35 174.293 35 168.486V69.5137C35 63.7069 39.7069 59 45.5137 59H95.3868C101.194 59 105.901 63.7069 105.901 69.5137Z" fill="#E0E0E0"/>
<path d="M98.6481 69.5133V168.486C98.6481 170.287 97.1879 171.747 95.3868 171.747H45.5138C43.7127 171.747 42.2526 170.287 42.2526 168.486V69.5133C42.2526 67.7122 43.7127 66.2521 45.5138 66.2521H49.3165C49.7154 66.2521 50.0732 66.4987 50.2134 66.871L51.9202 71.353C52.4327 72.3152 53.4335 72.9147 54.5214 72.9147H86.3792C87.4671 72.9147 88.468 72.3152 88.9805 71.353L90.6872 66.871C90.7561 66.6889 90.8789 66.5322 91.0391 66.4216C91.1993 66.311 91.3894 66.2519 91.5841 66.2521H95.3868C97.1879 66.2521 98.6481 67.7122 98.6481 69.5133Z" fill="white"/>
<path d="M79 111H78V107C78 102.588 74.412 99 70 99C65.588 99 62 102.588 62 107V111H61C59.346 111 58 112.346 58 114V128C58 129.654 59.346 131 61 131H79C80.654 131 82 129.654 82 128V114C82 112.346 80.654 111 79 111ZM64.666 107C64.666 104.06 67.058 101.666 70 101.666C72.942 101.666 75.334 104.06 75.334 107V111H64.666V107ZM71.334 121.296V124.334C71.334 125.07 70.738 125.668 70 125.668C69.262 125.668 68.666 125.07 68.666 124.334V121.296C67.872 120.834 67.332 119.984 67.332 119C67.332 117.53 68.528 116.334 69.998 116.334C71.468 116.334 72.664 117.53 72.664 119C72.666 119.982 72.126 120.834 71.334 121.296Z" fill="#ED0226"/>
<path d="M63.2038 68.0664H61.2935C60.8126 68.0664 60.3514 67.8754 60.0114 67.5354C59.6714 67.1953 59.4803 66.7342 59.4803 66.2533C59.4803 65.7724 59.6714 65.3112 60.0114 64.9712C60.3514 64.6312 60.8126 64.4402 61.2935 64.4402H63.2038C63.6847 64.4402 64.1458 64.6312 64.4859 64.9712C64.8259 65.3112 65.0169 65.7724 65.0169 66.2533C65.0169 66.7342 64.8259 67.1953 64.4859 67.5354C64.1458 67.8754 63.6847 68.0664 63.2038 68.0664Z" fill="#C2C2C2"/>
<path d="M80.3362 68.0664H70.1996C69.7187 68.0664 69.2576 67.8754 68.9175 67.5354C68.5775 67.1953 68.3865 66.7342 68.3865 66.2533C68.3865 65.7724 68.5775 65.3112 68.9175 64.9712C69.2576 64.6312 69.7187 64.4402 70.1996 64.4402H80.3362C80.8171 64.4402 81.2782 64.6312 81.6183 64.9712C81.9583 65.3112 82.1493 65.7724 82.1493 66.2533C82.1493 66.7342 81.9583 67.1953 81.6183 67.5354C81.2782 67.8754 80.8171 68.0664 80.3362 68.0664Z" fill="#C2C2C2"/>
</g>
</svg>
