<svg width="181" height="181" viewBox="0 0 181 181" fill="none" xmlns="http://www.w3.org/2000/svg">
<circle cx="90.5" cy="90.5" r="90" fill="#FFE0E5"/>
<mask id="mask0_10787_4893" style="mask-type:alpha" maskUnits="userSpaceOnUse" x="0" y="0" width="181" height="181">
<circle cx="90.5" cy="90.5" r="90" fill="#D9D9D9"/>
</mask>
<g mask="url(#mask0_10787_4893)">
<path d="M128 193.5H53C40.5725 193.5 30.5 183.427 30.5 171V96C30.5 83.5725 40.5725 73.5 53 73.5H128C140.427 73.5 150.5 83.5725 150.5 96V171C150.5 183.427 140.427 193.5 128 193.5Z" fill="white"/>
<path d="M115.425 149.325C115.425 150.225 115.225 151.15 114.8 152.05C114.375 152.95 113.825 153.8 113.1 154.6C111.875 155.95 110.525 156.925 109 157.55C107.5 158.175 105.875 158.5 104.125 158.5C101.575 158.5 98.85 157.9 95.975 156.675C93.1 155.45 90.225 153.8 87.375 151.725C84.5 149.625 81.775 147.3 79.175 144.725C76.6 142.125 74.275 139.4 72.2 136.55C70.15 133.7 68.5 130.85 67.3 128.025C66.1 125.175 65.5 122.45 65.5 119.85C65.5 118.15 65.8 116.525 66.4 115.025C67 113.5 67.95 112.1 69.275 110.85C70.875 109.275 72.625 108.5 74.475 108.5C75.175 108.5 75.875 108.65 76.5 108.95C77.15 109.25 77.725 109.7 78.175 110.35L83.975 118.525C84.425 119.15 84.75 119.725 84.975 120.275C85.2 120.8 85.325 121.325 85.325 121.8C85.325 122.4 85.15 123 84.8 123.575C84.475 124.15 84 124.75 83.4 125.35L81.5 127.325C81.225 127.6 81.1 127.925 81.1 128.325C81.1 128.525 81.125 128.7 81.175 128.9C81.25 129.1 81.325 129.25 81.375 129.4C81.825 130.225 82.6 131.3 83.7 132.6C84.825 133.9 86.025 135.225 87.325 136.55C88.675 137.875 89.975 139.1 91.3 140.225C92.6 141.325 93.675 142.075 94.525 142.525C94.65 142.575 94.8 142.65 94.975 142.725C95.175 142.8 95.375 142.825 95.6 142.825C96.025 142.825 96.35 142.675 96.625 142.4L98.525 140.525C99.15 139.9 99.75 139.425 100.325 139.125C100.9 138.775 101.475 138.6 102.1 138.6C102.575 138.6 103.075 138.7 103.625 138.925C104.175 139.15 104.75 139.475 105.375 139.9L113.65 145.775C114.3 146.225 114.75 146.75 115.025 147.375C115.275 148 115.425 148.625 115.425 149.325Z" fill="#ED0226"/>
<rect x="71" y="50.5" width="40" height="40" rx="20" fill="#ED0226"/>
<path d="M83.9484 75.4204L99.3464 62.5L101.93 65.5796L86.5325 78.5L83.9484 75.4204Z" fill="white"/>
<path d="M87.0422 72.8283L83.1376 68.2166L80.0695 70.8142L83.974 75.426L87.0422 72.8283Z" fill="white"/>
</g>
</svg>
