<svg width="180" height="180" viewBox="0 0 180 180" fill="none" xmlns="http://www.w3.org/2000/svg">
<circle cx="90" cy="90" r="90" fill="#FFE0E5"/>
<mask id="mask0_10787_4865" style="mask-type:alpha" maskUnits="userSpaceOnUse" x="0" y="0" width="180" height="180">
<circle cx="90" cy="90" r="90" fill="#D9D9D9"/>
</mask>
<g mask="url(#mask0_10787_4865)">
<path d="M127.5 193H52.5C40.0725 193 30 182.927 30 170.5V95.5C30 83.0725 40.0725 73 52.5 73H127.5C139.927 73 150 83.0725 150 95.5V170.5C150 182.927 139.927 193 127.5 193Z" fill="white"/>
<path d="M114.925 148.825C114.925 149.725 114.725 150.65 114.3 151.55C113.875 152.45 113.325 153.3 112.6 154.1C111.375 155.45 110.025 156.425 108.5 157.05C107 157.675 105.375 158 103.625 158C101.075 158 98.35 157.4 95.475 156.175C92.6 154.95 89.725 153.3 86.875 151.225C84 149.125 81.275 146.8 78.675 144.225C76.1 141.625 73.775 138.9 71.7 136.05C69.65 133.2 68 130.35 66.8 127.525C65.6 124.675 65 121.95 65 119.35C65 117.65 65.3 116.025 65.9 114.525C66.5 113 67.45 111.6 68.775 110.35C70.375 108.775 72.125 108 73.975 108C74.675 108 75.375 108.15 76 108.45C76.65 108.75 77.225 109.2 77.675 109.85L83.475 118.025C83.925 118.65 84.25 119.225 84.475 119.775C84.7 120.3 84.825 120.825 84.825 121.3C84.825 121.9 84.65 122.5 84.3 123.075C83.975 123.65 83.5 124.25 82.9 124.85L81 126.825C80.725 127.1 80.6 127.425 80.6 127.825C80.6 128.025 80.625 128.2 80.675 128.4C80.75 128.6 80.825 128.75 80.875 128.9C81.325 129.725 82.1 130.8 83.2 132.1C84.325 133.4 85.525 134.725 86.825 136.05C88.175 137.375 89.475 138.6 90.8 139.725C92.1 140.825 93.175 141.575 94.025 142.025C94.15 142.075 94.3 142.15 94.475 142.225C94.675 142.3 94.875 142.325 95.1 142.325C95.525 142.325 95.85 142.175 96.125 141.9L98.025 140.025C98.65 139.4 99.25 138.925 99.825 138.625C100.4 138.275 100.975 138.1 101.6 138.1C102.075 138.1 102.575 138.2 103.125 138.425C103.675 138.65 104.25 138.975 104.875 139.4L113.15 145.275C113.8 145.725 114.25 146.25 114.525 146.875C114.775 147.5 114.925 148.125 114.925 148.825Z" fill="#ED0226"/>
</g>
</svg>
