<?xml version="1.0" encoding="UTF-8"?>
<svg version="1.1" xmlns="http://www.w3.org/2000/svg" width="282" height="281">
<path d="M0 0 C1.12317627 0.00081573 1.12317627 0.00081573 2.26904297 0.00164795 C14.4177615 0.04213072 25.77698766 0.98835199 37.5 4.375 C38.23460449 4.57335449 38.96920898 4.77170898 39.72607422 4.97607422 C62.33004626 11.17306285 81.57957734 23.38097729 98.5 39.375 C99.31082031 40.12136719 100.12164062 40.86773437 100.95703125 41.63671875 C119.32650645 59.13834473 130.85060709 82.11343229 137.5 106.375 C137.69062012 107.04257324 137.88124023 107.71014648 138.07763672 108.39794922 C143.82824037 129.49811455 142.51258519 156.56220512 136.5 177.375 C136.20246826 178.47690674 136.20246826 178.47690674 135.89892578 179.60107422 C131.30336084 196.36373551 123.33745543 212.55986429 112.27734375 226 C110.4118719 228.24830525 110.4118719 228.24830525 109.6484375 230.76953125 C107.94817434 234.62693101 105.17725581 237.14289802 102.1875 240.0625 C101.56085449 240.67826904 100.93420898 241.29403809 100.28857422 241.9284668 C74.60774288 266.75327043 40.26785538 280.79482474 4.57495117 280.69067383 C2.33266825 280.68752829 0.09172911 280.71101427 -2.15039062 280.73632812 C-39.72720429 280.90145345 -74.3626391 264.476283 -100.875 238.375 C-117.29014534 221.67215807 -128.9438805 200.68835943 -135.3125 178.1875 C-135.5074707 177.49994629 -135.70244141 176.81239258 -135.90332031 176.10400391 C-139.01948974 164.37302745 -139.87781262 152.72841182 -139.8125 140.625 C-139.81067719 139.92189697 -139.80885437 139.21879395 -139.80697632 138.49438477 C-139.76053912 127.84438317 -139.24890461 117.71927156 -136.5 107.375 C-136.32839355 106.72257324 -136.15678711 106.07014648 -135.97998047 105.39794922 C-126.49829651 70.22505368 -104.34365628 38.4619323 -72.70263672 19.83374023 C-49.87303472 6.84791743 -26.3541599 -0.07216923 0 0 Z " fill="#DFDFDF" transform="translate(139.5,0.625)"/>
<path d="M0 0 C2.53271849 1.49102549 2.53271849 1.49102549 4.99609375 1.24609375 C7.26892333 0.45324622 9.27414012 -0.45941045 11.43359375 -1.50390625 C32.76264513 -11.03390793 58.79289265 -10.25711742 80.49609375 -2.37890625 C88.23785033 0.81793851 95.9080496 4.10621954 101.68359375 10.30859375 C76.25590368 36.77036089 43.47445211 57.50347231 5.61618042 58.57286072 C2.66332731 58.62270748 -0.28822507 58.63288502 -3.24145508 58.62426758 C-5.483738 58.62112204 -7.72467714 58.64460802 -9.96679688 58.66992188 C-23.36344097 58.72925425 -36.30624008 56.96859687 -49.06640625 52.74609375 C-49.7109375 52.53791016 -50.35546875 52.32972656 -51.01953125 52.11523438 C-54.5074361 50.97523269 -57.92653511 49.71241443 -61.31640625 48.30859375 C-61.31640625 47.64859375 -61.31640625 46.98859375 -61.31640625 46.30859375 C-62.15171875 46.05980469 -62.98703125 45.81101562 -63.84765625 45.5546875 C-82.31746579 38.91969961 -97.00224365 25.21990318 -110.31640625 11.30859375 C-108.30640464 5.27858891 -99.90516659 2.16773143 -94.40869141 -0.6796875 C-64.87958593 -15.30505847 -29.42259021 -15.00586756 0 0 Z " fill="#C2C2C2" transform="translate(147.31640625,222.69140625)"/>
<path d="M0 0 C10.44371972 6.87718144 17.53341421 14.90983021 22.30078125 26.4921875 C22.67589844 27.39195313 23.05101562 28.29171875 23.4375 29.21875 C26.35390513 40.27733595 25.72072272 54.39291768 20.30078125 64.4921875 C19.86507812 65.348125 19.429375 66.2040625 18.98046875 67.0859375 C12.11574936 79.53996393 1.32530311 87.65700516 -12.234375 91.79296875 C-26.49449368 94.67071536 -39.0259006 92.39717528 -51.44921875 84.7421875 C-60.59072035 78.13346892 -66.40546477 70.93756979 -70.69921875 60.4921875 C-71.03953125 59.66847656 -71.37984375 58.84476562 -71.73046875 57.99609375 C-76.27740405 45.17626227 -73.82160008 32.34929327 -68.2265625 20.328125 C-61.70345287 8.14548527 -51.4596787 -0.10626298 -38.4375 -4.64453125 C-25.73535506 -7.57783745 -11.41929883 -6.37894262 0 0 Z " fill="#C2C2C2" transform="translate(123.69921875,94.5078125)"/>
<path d="M0 0 C4.516116 3.91689025 7.74188446 7.99377875 10.5625 13.25 C11.29146484 14.55710938 11.29146484 14.55710938 12.03515625 15.890625 C17.36517677 26.75852199 17.19896672 38.37045456 13.5 49.75 C11.05884815 55.74629413 8.02693217 60.57297582 3.5625 65.25 C3.02882813 65.81203125 2.49515625 66.3740625 1.9453125 66.953125 C-6.78958694 75.22829289 -18.95871299 78.77736123 -30.7109375 78.5546875 C-43.20869212 77.53285851 -53.31534859 72.02078893 -61.8125 62.875 C-70.52964447 51.78961396 -72.82024853 39.07748529 -71.4375 25.25 C-69.36139075 17.60492816 -65.63260511 11.17807786 -60.4375 5.25 C-59.93734375 4.64542969 -59.4371875 4.04085937 -58.921875 3.41796875 C-43.87709658 -13.34308294 -17.15691459 -12.74659331 0 0 Z " fill="#9E9E9E" transform="translate(222.4375,114.75)"/>
<path d="M0 0 C1.36990453 1.29573034 2.71499527 2.62002956 4 4 C-13.67069506 22.38931561 -32.13982318 35.74748754 -56 45 C-56.66 45 -57.32 45 -58 45 C-58.14695313 44.34515625 -58.29390625 43.6903125 -58.4453125 43.015625 C-63.37322828 22.96410563 -75.89729342 8.10426252 -93 -3 C-72.14929583 -25.57760298 -21.79512641 -14.22686883 0 0 Z " fill="#9E9E9E" transform="translate(245,229)"/>
</svg>
