<svg width="33" height="32" viewBox="0 0 33 32" fill="none" xmlns="http://www.w3.org/2000/svg">
<path d="M12.5 29.3337H20.5C27.1667 29.3337 29.8333 26.667 29.8333 20.0003V12.0003C29.8333 5.33366 27.1667 2.66699 20.5 2.66699H12.5C5.83334 2.66699 3.16667 5.33366 3.16667 12.0003V20.0003C3.16667 26.667 5.83334 29.3337 12.5 29.3337Z" stroke="#404040" stroke-width="2" stroke-linecap="round" stroke-linejoin="round"/>
<path d="M12.5 13.3333C13.9728 13.3333 15.1667 12.1394 15.1667 10.6667C15.1667 9.19391 13.9728 8 12.5 8C11.0272 8 9.83333 9.19391 9.83333 10.6667C9.83333 12.1394 11.0272 13.3333 12.5 13.3333Z" stroke="#404040" stroke-width="2" stroke-linecap="round" stroke-linejoin="round"/>
<path d="M4.06 25.2671L10.6333 20.8537C11.6867 20.1471 13.2067 20.2271 14.1533 21.0404L14.5933 21.4271C15.6333 22.3204 17.3133 22.3204 18.3533 21.4271L23.9 16.6671C24.94 15.7737 26.62 15.7737 27.66 16.6671L29.8333 18.5337" stroke="#404040" stroke-width="2" stroke-linecap="round" stroke-linejoin="round"/>
</svg>
