<svg width="18" height="19" viewBox="0 0 18 19" fill="none" xmlns="http://www.w3.org/2000/svg">
<path d="M6.29251 14.3671V6.74705C6.29251 6.44705 6.38251 6.15455 6.54751 5.90705L8.59501 2.86205C8.91751 2.37455 9.72001 2.02955 10.4025 2.28455C11.1375 2.53205 11.625 3.35705 11.4675 4.09205L11.0775 6.54455C11.0475 6.76955 11.1075 6.97205 11.235 7.12955C11.3625 7.27205 11.55 7.36205 11.7525 7.36205H14.835C15.4275 7.36205 15.9375 7.60205 16.2375 8.02205C16.5225 8.42705 16.575 8.95205 16.3875 9.48455L14.5425 15.1021C14.31 16.0321 13.2975 16.7896 12.2925 16.7896H9.36751C8.86501 16.7896 8.16001 16.6171 7.83751 16.2946L6.87751 15.5521C6.51001 15.2746 6.29251 14.8321 6.29251 14.3671Z" fill="white"/>
<path d="M3.9075 5.28516H3.135C1.9725 5.28516 1.5 5.73516 1.5 6.84516V14.3902C1.5 15.5002 1.9725 15.9502 3.135 15.9502H3.9075C5.07 15.9502 5.5425 15.5002 5.5425 14.3902V6.84516C5.5425 5.73516 5.07 5.28516 3.9075 5.28516Z" fill="white"/>
</svg>
