<svg width="28" height="29" viewBox="0 0 28 29" fill="none" xmlns="http://www.w3.org/2000/svg">
<path d="M18.83 3.9529L8.29501 7.45289C1.21335 9.82123 1.21335 13.6829 8.29501 16.0396L11.4217 17.0779L12.46 20.2046C14.8167 27.2862 18.69 27.2862 21.0467 20.2046L24.5583 9.68123C26.1217 4.95623 23.555 2.3779 18.83 3.9529ZM19.2033 10.2296L14.77 14.6862C14.595 14.8612 14.3733 14.9429 14.1517 14.9429C13.93 14.9429 13.7083 14.8612 13.5333 14.6862C13.195 14.3479 13.195 13.7879 13.5333 13.4496L17.9667 8.9929C18.305 8.65456 18.865 8.65456 19.2033 8.9929C19.5417 9.33123 19.5417 9.89123 19.2033 10.2296Z" fill="url(#paint0_linear_10320_886)"/>
<defs>
<linearGradient id="paint0_linear_10320_886" x1="37.0644" y1="38.6623" x2="10.1134" y2="-1.31614" gradientUnits="userSpaceOnUse">
<stop stop-color="#FFC79F"/>
<stop offset="0.528793" stop-color="#FF5050"/>
<stop offset="1" stop-color="#ED0226"/>
</linearGradient>
</defs>
</svg>
