<svg width="20" height="21" viewBox="0 0 20 21" fill="none" xmlns="http://www.w3.org/2000/svg">
<path d="M5.01668 7.9248V10.3331C5.01668 10.8415 4.80001 11.6165 4.54168 12.0498L3.58335 13.6415C2.99168 14.6248 3.40001 15.7165 4.48335 16.0831C7.21357 16.9953 10.1075 17.2141 12.9163 16.7395M16.4417 13.6415L15.4833 12.0498C15.2333 11.6165 15.0167 10.8415 15.0167 10.3331V7.9248C15.0167 5.1748 12.7667 2.9248 10.0167 2.9248C8.59507 2.9248 7.3107 3.52024 6.39972 4.47497" stroke="#404040" stroke-width="1.5" stroke-miterlimit="10" stroke-linecap="round"/>
<path d="M11.5583 3.16621C11.3 3.09121 11.0333 3.03288 10.7583 2.99954C9.95831 2.89954 9.19164 2.95788 8.47498 3.16621C8.71664 2.54954 9.31664 2.11621 10.0166 2.11621C10.7166 2.11621 11.3166 2.54954 11.5583 3.16621Z" stroke="#404040" stroke-width="1.5" stroke-miterlimit="10" stroke-linecap="round" stroke-linejoin="round"/>
<path d="M2.92896 3.42871L17.0711 17.5708" stroke="#404040" stroke-width="1.5" stroke-linecap="round"/>
<path d="M12.5167 16.3838C12.5167 17.7588 11.3917 18.8838 10.0167 18.8838C9.33333 18.8838 8.7 18.6005 8.25 18.1505C7.8 17.7005 7.51666 17.0671 7.51666 16.3838" stroke="#404040" stroke-width="1.5" stroke-miterlimit="10"/>
</svg>
