<svg width="33" height="32" viewBox="0 0 33 32" fill="none" xmlns="http://www.w3.org/2000/svg">
<path d="M9.51332 29.3337H23.4867C27.1667 29.3337 28.6333 27.0803 28.8067 24.3337L29.5 13.3203C29.6867 10.4403 27.3933 8.00033 24.5 8.00033C23.6867 8.00033 22.94 7.53366 22.5667 6.81366L21.6067 4.88033C20.9933 3.66699 19.3933 2.66699 18.0333 2.66699H14.98C13.6067 2.66699 12.0067 3.66699 11.3933 4.88033L10.4333 6.81366C10.06 7.53366 9.31332 8.00033 8.49999 8.00033C5.60666 8.00033 3.31332 10.4403 3.49999 13.3203L4.19332 24.3337C4.35332 27.0803 5.83332 29.3337 9.51332 29.3337Z" stroke="#404040" stroke-width="2" stroke-linecap="round" stroke-linejoin="round"/>
<path d="M14.5 10.667H18.5" stroke="#404040" stroke-width="2" stroke-linecap="round" stroke-linejoin="round"/>
<path d="M16.5 23.9997C18.8867 23.9997 20.8333 22.053 20.8333 19.6663C20.8333 17.2797 18.8867 15.333 16.5 15.333C14.1133 15.333 12.1667 17.2797 12.1667 19.6663C12.1667 22.053 14.1133 23.9997 16.5 23.9997Z" stroke="#404040" stroke-width="2" stroke-linecap="round" stroke-linejoin="round"/>
</svg>
