<svg width="18" height="19" viewBox="0 0 18 19" fill="none" xmlns="http://www.w3.org/2000/svg">
<path d="M12.39 4.7373L10.065 2.9373C9.76501 2.6373 9.09001 2.4873 8.64001 2.4873H5.79001C4.89001 2.4873 3.91501 3.1623 3.69001 4.0623L1.89001 9.5373C1.51501 10.5873 2.19001 11.4873 3.31501 11.4873H6.31501C6.76501 11.4873 7.14001 11.8623 7.06501 12.3873L6.69001 14.7873C6.54001 15.4623 6.99001 16.2123 7.66501 16.4373C8.26501 16.6623 9.01501 16.3623 9.31501 15.9123L12.39 11.3373" stroke="#9E9E9E" stroke-width="1.5" stroke-miterlimit="10"/>
<path d="M16.215 4.7375V12.0875C16.215 13.1375 15.765 13.5125 14.715 13.5125H13.965C12.915 13.5125 12.465 13.1375 12.465 12.0875V4.7375C12.465 3.6875 12.915 3.3125 13.965 3.3125H14.715C15.765 3.3125 16.215 3.6875 16.215 4.7375Z" stroke="#9E9E9E" stroke-width="1.5" stroke-linecap="round" stroke-linejoin="round"/>
</svg>
