<svg width="28" height="29" viewBox="0 0 28 29" fill="none" xmlns="http://www.w3.org/2000/svg">
<path d="M22.3067 11.1396C21.8517 11.1396 21.49 11.5013 21.49 11.9563V13.7996C21.49 17.9296 18.13 21.2896 14 21.2896C9.87 21.2896 6.51 17.9296 6.51 13.7996V11.9446C6.51 11.4896 6.14833 11.1279 5.69333 11.1279C5.23833 11.1279 4.87667 11.4896 4.87667 11.9446V13.7879C4.87667 18.5363 8.52833 22.4446 13.1833 22.8646V25.3496C13.1833 25.8046 13.545 26.1663 14 26.1663C14.455 26.1663 14.8167 25.8046 14.8167 25.3496V22.8646C19.46 22.4563 23.1233 18.5363 23.1233 13.7879V11.9446C23.1117 11.5013 22.75 11.1396 22.3067 11.1396Z" fill="url(#paint0_linear_10328_902)"/>
<path d="M14 2.83301C11.1533 2.83301 8.84333 5.14301 8.84333 7.98967V13.963C8.84333 16.8097 11.1533 19.1197 14 19.1197C16.8467 19.1197 19.1567 16.8097 19.1567 13.963V7.98967C19.1567 5.14301 16.8467 2.83301 14 2.83301ZM15.5283 10.9413C15.4467 11.2447 15.1783 11.443 14.875 11.443C14.8167 11.443 14.7583 11.4313 14.7 11.4197C14.245 11.2913 13.7667 11.2913 13.3117 11.4197C12.9383 11.5247 12.5767 11.303 12.4833 10.9413C12.3783 10.5797 12.6 10.2063 12.9617 10.113C13.65 9.92634 14.3733 9.92634 15.0617 10.113C15.4117 10.2063 15.6217 10.5797 15.5283 10.9413ZM16.1467 8.67801C16.0417 8.95801 15.785 9.12134 15.505 9.12134C15.4233 9.12134 15.3533 9.10967 15.2717 9.08634C14.455 8.78301 13.545 8.78301 12.7283 9.08634C12.3783 9.21467 11.9817 9.02801 11.8533 8.67801C11.725 8.32801 11.9117 7.93134 12.2617 7.81467C13.3817 7.40634 14.6183 7.40634 15.7383 7.81467C16.0883 7.94301 16.275 8.32801 16.1467 8.67801Z" fill="url(#paint1_linear_10328_902)"/>
<defs>
<linearGradient id="paint0_linear_10328_902" x1="33.1009" y1="35.1423" x2="16.2431" y2="4.81066" gradientUnits="userSpaceOnUse">
<stop stop-color="#FFC79F"/>
<stop offset="0.528793" stop-color="#FF5050"/>
<stop offset="1" stop-color="#ED0226"/>
</linearGradient>
<linearGradient id="paint1_linear_10328_902" x1="24.7962" y1="28.8408" x2="3.34038" y2="8.6933" gradientUnits="userSpaceOnUse">
<stop stop-color="#FFC79F"/>
<stop offset="0.528793" stop-color="#FF5050"/>
<stop offset="1" stop-color="#ED0226"/>
</linearGradient>
</defs>
</svg>
