<svg width="20" height="21" viewBox="0 0 20 21" fill="none" xmlns="http://www.w3.org/2000/svg">
<path d="M17.5 5.48307C14.725 5.20807 11.9333 5.06641 9.15 5.06641C7.5 5.06641 5.85 5.14974 4.2 5.31641L2.5 5.48307" stroke="#404040" stroke-width="1.5" stroke-linecap="round" stroke-linejoin="round"/>
<path d="M7.08331 4.64199L7.26665 3.55033C7.39998 2.75866 7.49998 2.16699 8.90831 2.16699H11.0916C12.5 2.16699 12.6083 2.79199 12.7333 3.55866L12.9166 4.64199" stroke="#404040" stroke-width="1.5" stroke-linecap="round" stroke-linejoin="round"/>
<path d="M15.7084 8.11621L15.1667 16.5079C15.075 17.8162 15 18.8329 12.675 18.8329H7.32502C5.00002 18.8329 4.92502 17.8162 4.83335 16.5079L4.29169 8.11621" stroke="#404040" stroke-width="1.5" stroke-linecap="round" stroke-linejoin="round"/>
<path d="M8.60834 14.25H11.3833" stroke="#404040" stroke-width="1.5" stroke-linecap="round" stroke-linejoin="round"/>
<path d="M7.91669 10.917H12.0834" stroke="#404040" stroke-width="1.5" stroke-linecap="round" stroke-linejoin="round"/>
</svg>
