<svg width="26" height="29" viewBox="0 0 26 29" fill="none" xmlns="http://www.w3.org/2000/svg">
<mask id="mask0_11043_1110" style="mask-type:alpha" maskUnits="userSpaceOnUse" x="0" y="0" width="26" height="29">
<path d="M23.3638 28.5H2.63654C1.53197 28.5 0.636536 27.6046 0.636536 26.5V2.5C0.636536 1.39543 1.53197 0.5 2.63654 0.5H16.0911L25.3638 9.77273V26.5C25.3638 27.6046 24.4684 28.5 23.3638 28.5Z" fill="url(#paint0_linear_11043_1110)"/>
</mask>
<g mask="url(#mask0_11043_1110)">
<path d="M23.3634 28.5H2.63617C1.5316 28.5 0.636169 27.6046 0.636169 26.5V2.5C0.636169 1.39543 1.5316 0.5 2.63617 0.5H16.0907L25.3634 9.77273V26.5C25.3634 27.6046 24.468 28.5 23.3634 28.5Z" fill="url(#paint1_linear_11043_1110)"/>
<path opacity="0.12" fill-rule="evenodd" clip-rule="evenodd" d="M18.7265 13.1378H7.27191V12.0469H18.7265V13.1378ZM18.7265 15.8642H7.27191V14.7733H18.7265V15.8642ZM7.27191 18.5917H18.7265V17.5008H7.27191V18.5917ZM18.7265 21.3193H7.27191V20.2284H18.7265V21.3193ZM7.27191 24.0468H18.7265V22.9559H7.27191V24.0468Z" fill="white"/>
<mask id="path-4-outside-1_11043_1110" maskUnits="userSpaceOnUse" x="5.27246" y="14.6816" width="16" height="7" fill="black">
<rect fill="white" x="5.27246" y="14.6816" width="16" height="7"/>
<path d="M6.29228 20.7175C6.20131 20.7175 6.1247 20.6864 6.06246 20.6242C6.00022 20.5619 5.9691 20.4853 5.9691 20.3944V15.9991C5.9691 15.9081 6.00022 15.8315 6.06246 15.7693C6.1247 15.7022 6.20131 15.6687 6.29228 15.6687H7.92973C8.38458 15.6687 8.75564 15.7453 9.04292 15.8985C9.33019 16.0518 9.53607 16.2481 9.66055 16.4875C9.78504 16.7269 9.84728 16.9854 9.84728 17.2631C9.84728 17.5408 9.78504 17.7993 9.66055 18.0387C9.53607 18.2781 9.33019 18.4744 9.04292 18.6276C8.75564 18.7809 8.38458 18.8575 7.92973 18.8575H6.62264V20.3944C6.62264 20.4853 6.58913 20.5619 6.5221 20.6242C6.45986 20.6864 6.38325 20.7175 6.29228 20.7175ZM7.8651 18.2398C8.35346 18.2398 8.69579 18.1465 8.8921 17.9597C9.09319 17.773 9.19373 17.5408 9.19373 17.2631C9.19373 16.9854 9.09319 16.7532 8.8921 16.5665C8.69579 16.3797 8.35346 16.2864 7.8651 16.2864H6.62264V18.2398H7.8651ZM11.6203 20.6816C11.5293 20.6816 11.4527 20.6505 11.3905 20.5883C11.3282 20.526 11.2971 20.4494 11.2971 20.3585V15.9991C11.2971 15.9081 11.3282 15.8315 11.3905 15.7693C11.4527 15.7022 11.5293 15.6687 11.6203 15.6687H13.0638C13.6097 15.6687 14.0717 15.7908 14.4499 16.035C14.833 16.2744 15.1202 16.5856 15.3117 16.9686C15.5033 17.3517 15.599 17.7539 15.599 18.1752C15.599 18.5965 15.5033 18.9987 15.3117 19.3817C15.1202 19.7648 14.833 20.0784 14.4499 20.3225C14.0717 20.5619 13.6097 20.6816 13.0638 20.6816H11.6203ZM12.9848 20.0712C13.3774 20.0712 13.7222 19.9922 14.019 19.8342C14.3159 19.6714 14.5457 19.4488 14.7085 19.1663C14.8713 18.879 14.9527 18.5486 14.9527 18.1752C14.9527 17.8017 14.8713 17.4738 14.7085 17.1913C14.5457 16.904 14.3159 16.6814 14.019 16.5234C13.7222 16.3606 13.3774 16.2792 12.9848 16.2792H11.9507V20.0712H12.9848ZM17.5164 20.7175C17.4254 20.7175 17.3488 20.6864 17.2866 20.6242C17.2243 20.5619 17.1932 20.4853 17.1932 20.3944V15.9991C17.1932 15.9081 17.2243 15.8315 17.2866 15.7693C17.3488 15.7022 17.4254 15.6687 17.5164 15.6687H20.3101C20.3963 15.6687 20.4681 15.6999 20.5256 15.7621C20.5878 15.8195 20.6189 15.8914 20.6189 15.9775C20.6189 16.0637 20.5878 16.1355 20.5256 16.193C20.4681 16.2505 20.3963 16.2792 20.3101 16.2792H17.8468V17.8664H20.0588C20.1449 17.8664 20.2168 17.8975 20.2742 17.9597C20.3365 18.0172 20.3676 18.089 20.3676 18.1752C20.3676 18.2614 20.3365 18.3332 20.2742 18.3906C20.2168 18.4481 20.1449 18.4768 20.0588 18.4768H17.8468V20.3944C17.8468 20.4853 17.8132 20.5619 17.7462 20.6242C17.684 20.6864 17.6074 20.7175 17.5164 20.7175Z"/>
</mask>
<path d="M6.29228 20.7175C6.20131 20.7175 6.1247 20.6864 6.06246 20.6242C6.00022 20.5619 5.9691 20.4853 5.9691 20.3944V15.9991C5.9691 15.9081 6.00022 15.8315 6.06246 15.7693C6.1247 15.7022 6.20131 15.6687 6.29228 15.6687H7.92973C8.38458 15.6687 8.75564 15.7453 9.04292 15.8985C9.33019 16.0518 9.53607 16.2481 9.66055 16.4875C9.78504 16.7269 9.84728 16.9854 9.84728 17.2631C9.84728 17.5408 9.78504 17.7993 9.66055 18.0387C9.53607 18.2781 9.33019 18.4744 9.04292 18.6276C8.75564 18.7809 8.38458 18.8575 7.92973 18.8575H6.62264V20.3944C6.62264 20.4853 6.58913 20.5619 6.5221 20.6242C6.45986 20.6864 6.38325 20.7175 6.29228 20.7175ZM7.8651 18.2398C8.35346 18.2398 8.69579 18.1465 8.8921 17.9597C9.09319 17.773 9.19373 17.5408 9.19373 17.2631C9.19373 16.9854 9.09319 16.7532 8.8921 16.5665C8.69579 16.3797 8.35346 16.2864 7.8651 16.2864H6.62264V18.2398H7.8651ZM11.6203 20.6816C11.5293 20.6816 11.4527 20.6505 11.3905 20.5883C11.3282 20.526 11.2971 20.4494 11.2971 20.3585V15.9991C11.2971 15.9081 11.3282 15.8315 11.3905 15.7693C11.4527 15.7022 11.5293 15.6687 11.6203 15.6687H13.0638C13.6097 15.6687 14.0717 15.7908 14.4499 16.035C14.833 16.2744 15.1202 16.5856 15.3117 16.9686C15.5033 17.3517 15.599 17.7539 15.599 18.1752C15.599 18.5965 15.5033 18.9987 15.3117 19.3817C15.1202 19.7648 14.833 20.0784 14.4499 20.3225C14.0717 20.5619 13.6097 20.6816 13.0638 20.6816H11.6203ZM12.9848 20.0712C13.3774 20.0712 13.7222 19.9922 14.019 19.8342C14.3159 19.6714 14.5457 19.4488 14.7085 19.1663C14.8713 18.879 14.9527 18.5486 14.9527 18.1752C14.9527 17.8017 14.8713 17.4738 14.7085 17.1913C14.5457 16.904 14.3159 16.6814 14.019 16.5234C13.7222 16.3606 13.3774 16.2792 12.9848 16.2792H11.9507V20.0712H12.9848ZM17.5164 20.7175C17.4254 20.7175 17.3488 20.6864 17.2866 20.6242C17.2243 20.5619 17.1932 20.4853 17.1932 20.3944V15.9991C17.1932 15.9081 17.2243 15.8315 17.2866 15.7693C17.3488 15.7022 17.4254 15.6687 17.5164 15.6687H20.3101C20.3963 15.6687 20.4681 15.6999 20.5256 15.7621C20.5878 15.8195 20.6189 15.8914 20.6189 15.9775C20.6189 16.0637 20.5878 16.1355 20.5256 16.193C20.4681 16.2505 20.3963 16.2792 20.3101 16.2792H17.8468V17.8664H20.0588C20.1449 17.8664 20.2168 17.8975 20.2742 17.9597C20.3365 18.0172 20.3676 18.089 20.3676 18.1752C20.3676 18.2614 20.3365 18.3332 20.2742 18.3906C20.2168 18.4481 20.1449 18.4768 20.0588 18.4768H17.8468V20.3944C17.8468 20.4853 17.8132 20.5619 17.7462 20.6242C17.684 20.6864 17.6074 20.7175 17.5164 20.7175Z" fill="white"/>
<path d="M6.06246 20.6242L6.19103 20.4956L6.19103 20.4956L6.06246 20.6242ZM6.06246 15.7693L6.19111 15.8979L6.1957 15.893L6.06246 15.7693ZM9.04292 15.8985L9.12848 15.7381L9.04292 15.8985ZM9.66055 16.4875L9.49924 16.5713L9.49924 16.5713L9.66055 16.4875ZM9.66055 18.0387L9.49924 17.9548L9.49924 17.9548L9.66055 18.0387ZM9.04292 18.6276L9.12848 18.7881L9.04292 18.6276ZM6.62264 18.8575V18.6756H6.44082V18.8575H6.62264ZM6.5221 20.6242L6.39829 20.4909L6.39353 20.4956L6.5221 20.6242ZM8.8921 17.9597L8.76837 17.8265L8.76679 17.828L8.8921 17.9597ZM8.8921 16.5665L8.76678 16.6982L8.76838 16.6997L8.8921 16.5665ZM6.62264 16.2864V16.1045H6.44082V16.2864H6.62264ZM6.62264 18.2398H6.44082V18.4216H6.62264V18.2398ZM6.29228 20.5357C6.24773 20.5357 6.21792 20.5225 6.19103 20.4956L5.9339 20.7528C6.03149 20.8503 6.15489 20.8994 6.29228 20.8994V20.5357ZM6.19103 20.4956C6.16414 20.4687 6.15092 20.4389 6.15092 20.3944H5.78728C5.78728 20.5318 5.8363 20.6552 5.9339 20.7528L6.19103 20.4956ZM6.15092 20.3944V15.9991H5.78728V20.3944H6.15092ZM6.15092 15.9991C6.15092 15.9545 6.16414 15.9247 6.19103 15.8978L5.9339 15.6407C5.8363 15.7383 5.78728 15.8617 5.78728 15.9991H6.15092ZM6.1957 15.893C6.22375 15.8628 6.25218 15.8505 6.29228 15.8505V15.4869C6.15043 15.4869 6.02565 15.5417 5.92923 15.6456L6.1957 15.893ZM6.29228 15.8505H7.92973V15.4869H6.29228V15.8505ZM7.92973 15.8505C8.36593 15.8505 8.70478 15.9243 8.95735 16.059L9.12848 15.7381C8.8065 15.5664 8.40323 15.4869 7.92973 15.4869V15.8505ZM8.95735 16.059C9.21903 16.1985 9.39494 16.3708 9.49924 16.5713L9.82186 16.4036C9.6772 16.1254 9.44135 15.905 9.12848 15.7381L8.95735 16.059ZM9.49924 16.5713C9.60985 16.7841 9.66546 17.0137 9.66546 17.2631H10.0291C10.0291 16.9571 9.96022 16.6697 9.82186 16.4036L9.49924 16.5713ZM9.66546 17.2631C9.66546 17.5125 9.60985 17.7421 9.49924 17.9548L9.82186 18.1226C9.96022 17.8565 10.0291 17.5691 10.0291 17.2631H9.66546ZM9.49924 17.9548C9.39494 18.1554 9.21903 18.3277 8.95735 18.4672L9.12848 18.7881C9.44135 18.6212 9.6772 18.4008 9.82186 18.1226L9.49924 17.9548ZM8.95735 18.4672C8.70478 18.6019 8.36593 18.6756 7.92973 18.6756V19.0393C8.40323 19.0393 8.8065 18.9598 9.12848 18.7881L8.95735 18.4672ZM7.92973 18.6756H6.62264V19.0393H7.92973V18.6756ZM6.44082 18.8575V20.3944H6.80446V18.8575H6.44082ZM6.44082 20.3944C6.44082 20.4345 6.42859 20.4629 6.39838 20.491L6.64582 20.7574C6.74966 20.661 6.80446 20.5362 6.80446 20.3944H6.44082ZM6.39353 20.4956C6.36664 20.5225 6.33683 20.5357 6.29228 20.5357V20.8994C6.42967 20.8994 6.55307 20.8503 6.65066 20.7528L6.39353 20.4956ZM7.8651 18.4216C8.36619 18.4216 8.76887 18.3279 9.01741 18.0915L8.76679 17.828C8.62272 17.965 8.34073 18.058 7.8651 18.058V18.4216ZM9.01582 18.093C9.25446 17.8714 9.37555 17.5907 9.37555 17.2631H9.01192C9.01192 17.4909 8.93192 17.6746 8.76838 17.8265L9.01582 18.093ZM9.37555 17.2631C9.37555 16.9355 9.25446 16.6548 9.01582 16.4332L8.76838 16.6997C8.93192 16.8516 9.01192 17.0353 9.01192 17.2631H9.37555ZM9.01741 16.4347C8.76887 16.1983 8.36619 16.1045 7.8651 16.1045V16.4682C8.34073 16.4682 8.62272 16.5612 8.76679 16.6982L9.01741 16.4347ZM7.8651 16.1045H6.62264V16.4682H7.8651V16.1045ZM6.44082 16.2864V18.2398H6.80446V16.2864H6.44082ZM6.62264 18.4216H7.8651V18.058H6.62264V18.4216ZM11.3905 20.5883L11.519 20.4597L11.519 20.4597L11.3905 20.5883ZM11.3905 15.7693L11.5191 15.8979L11.5237 15.893L11.3905 15.7693ZM14.4499 16.035L14.3513 16.1878L14.3536 16.1892L14.4499 16.035ZM15.3117 16.9686L15.1491 17.05L15.1491 17.05L15.3117 16.9686ZM15.3117 19.3817L15.1491 19.3004L15.1491 19.3004L15.3117 19.3817ZM14.4499 20.3225L14.5472 20.4762L14.5477 20.4759L14.4499 20.3225ZM14.019 19.8342L14.1045 19.9947L14.1064 19.9936L14.019 19.8342ZM14.7085 19.1663L14.866 19.2571L14.8667 19.2559L14.7085 19.1663ZM14.7085 17.1913L14.5503 17.2809L14.5509 17.2821L14.7085 17.1913ZM14.019 16.5234L13.9316 16.6828L13.9336 16.6839L14.019 16.5234ZM11.9507 16.2792V16.0974H11.7688V16.2792H11.9507ZM11.9507 20.0712H11.7688V20.253H11.9507V20.0712ZM11.6203 20.4998C11.5757 20.4998 11.5459 20.4866 11.519 20.4597L11.2619 20.7168C11.3595 20.8144 11.4829 20.8635 11.6203 20.8635V20.4998ZM11.519 20.4597C11.4921 20.4328 11.4789 20.403 11.4789 20.3585H11.1153C11.1153 20.4958 11.1643 20.6192 11.2619 20.7168L11.519 20.4597ZM11.4789 20.3585V15.9991H11.1153V20.3585H11.4789ZM11.4789 15.9991C11.4789 15.9545 11.4921 15.9247 11.519 15.8978L11.2619 15.6407C11.1643 15.7383 11.1153 15.8617 11.1153 15.9991H11.4789ZM11.5237 15.893C11.5518 15.8628 11.5802 15.8505 11.6203 15.8505V15.4869C11.4784 15.4869 11.3537 15.5417 11.2572 15.6456L11.5237 15.893ZM11.6203 15.8505H13.0638V15.4869H11.6203V15.8505ZM13.0638 15.8505C13.5822 15.8505 14.0082 15.9662 14.3513 16.1878L14.5485 15.8823C14.1352 15.6154 13.6371 15.4869 13.0638 15.4869V15.8505ZM14.3536 16.1892C14.7098 16.4119 14.9734 16.6985 15.1491 17.05L15.4744 16.8873C15.2671 16.4727 14.9561 16.1369 14.5463 15.8808L14.3536 16.1892ZM15.1491 17.05C15.3282 17.4082 15.4172 17.7826 15.4172 18.1752H15.7808C15.7808 17.7251 15.6783 17.2952 15.4744 16.8873L15.1491 17.05ZM15.4172 18.1752C15.4172 18.5678 15.3282 18.9422 15.1491 19.3004L15.4744 19.463C15.6783 19.0552 15.7808 18.6252 15.7808 18.1752H15.4172ZM15.1491 19.3004C14.9732 19.6522 14.7092 19.9416 14.3522 20.1692L14.5477 20.4759C14.9567 20.2151 15.2672 19.8773 15.4744 19.463L15.1491 19.3004ZM14.3527 20.1689C14.0093 20.3862 13.5828 20.4998 13.0638 20.4998V20.8635C13.6365 20.8635 14.134 20.7377 14.5472 20.4762L14.3527 20.1689ZM13.0638 20.4998H11.6203V20.8635H13.0638V20.4998ZM12.9848 20.253C13.4022 20.253 13.7772 20.1689 14.1044 19.9947L13.9336 19.6737C13.6671 19.8155 13.3527 19.8894 12.9848 19.8894V20.253ZM14.1064 19.9936C14.4313 19.8154 14.6859 19.5696 14.866 19.2571L14.5509 19.0755C14.4054 19.328 14.2004 19.5274 13.9316 19.6748L14.1064 19.9936ZM14.8667 19.2559C15.0469 18.9379 15.1345 18.5759 15.1345 18.1752H14.7708C14.7708 18.5214 14.6956 18.8201 14.5503 19.0766L14.8667 19.2559ZM15.1345 18.1752C15.1345 17.7746 15.0469 17.4144 14.866 17.1005L14.5509 17.2821C14.6956 17.5331 14.7708 17.8289 14.7708 18.1752H15.1345ZM14.8667 17.1016C14.6865 16.7837 14.4312 16.5368 14.1044 16.3629L13.9336 16.6839C14.2005 16.826 14.4049 17.0243 14.5503 17.2809L14.8667 17.1016ZM14.1064 16.3639C13.7788 16.1843 13.4031 16.0974 12.9848 16.0974V16.461C13.3518 16.461 13.6655 16.5369 13.9316 16.6828L14.1064 16.3639ZM12.9848 16.0974H11.9507V16.461H12.9848V16.0974ZM11.7688 16.2792V20.0712H12.1325V16.2792H11.7688ZM11.9507 20.253H12.9848V19.8894H11.9507V20.253ZM17.2866 20.6242L17.4151 20.4956L17.4151 20.4956L17.2866 20.6242ZM17.2866 15.7693L17.4152 15.8979L17.4198 15.893L17.2866 15.7693ZM20.5256 15.7621L20.392 15.8854L20.3969 15.8908L20.4023 15.8957L20.5256 15.7621ZM20.5256 16.193L20.4022 16.0593L20.397 16.0644L20.5256 16.193ZM17.8468 16.2792V16.0974H17.6649V16.2792H17.8468ZM17.8468 17.8664H17.6649V18.0482H17.8468V17.8664ZM20.2742 17.9597L20.1406 18.0831L20.1455 18.0884L20.1509 18.0933L20.2742 17.9597ZM20.2742 18.3906L20.1508 18.2569L20.1457 18.2621L20.2742 18.3906ZM17.8468 18.4768V18.295H17.6649V18.4768H17.8468ZM17.7462 20.6242L17.6224 20.4909L17.6176 20.4956L17.7462 20.6242ZM17.5164 20.5357C17.4718 20.5357 17.442 20.5225 17.4151 20.4956L17.158 20.7528C17.2556 20.8503 17.379 20.8994 17.5164 20.8994V20.5357ZM17.4151 20.4956C17.3883 20.4687 17.375 20.4389 17.375 20.3944H17.0114C17.0114 20.5318 17.0604 20.6552 17.158 20.7528L17.4151 20.4956ZM17.375 20.3944V15.9991H17.0114V20.3944H17.375ZM17.375 15.9991C17.375 15.9545 17.3883 15.9247 17.4151 15.8978L17.158 15.6407C17.0604 15.7383 17.0114 15.8617 17.0114 15.9991H17.375ZM17.4198 15.893C17.4479 15.8628 17.4763 15.8505 17.5164 15.8505V15.4869C17.3746 15.4869 17.2498 15.5417 17.1533 15.6456L17.4198 15.893ZM17.5164 15.8505H20.3101V15.4869H17.5164V15.8505ZM20.3101 15.8505C20.3466 15.8505 20.3696 15.8612 20.392 15.8854L20.6592 15.6388C20.5666 15.5385 20.446 15.4869 20.3101 15.4869V15.8505ZM20.4023 15.8957C20.4265 15.9181 20.4371 15.9411 20.4371 15.9775H20.8008C20.8008 15.8416 20.7492 15.721 20.6489 15.6285L20.4023 15.8957ZM20.4371 15.9775C20.4371 16.014 20.4265 16.037 20.4023 16.0594L20.6489 16.3266C20.7492 16.2341 20.8008 16.1135 20.8008 15.9775H20.4371ZM20.397 16.0644C20.3759 16.0856 20.3513 16.0974 20.3101 16.0974V16.461C20.4413 16.461 20.5604 16.4153 20.6541 16.3216L20.397 16.0644ZM20.3101 16.0974H17.8468V16.461H20.3101V16.0974ZM17.6649 16.2792V17.8664H18.0286V16.2792H17.6649ZM17.8468 18.0482H20.0588V17.6845H17.8468V18.0482ZM20.0588 18.0482C20.0952 18.0482 20.1183 18.0588 20.1406 18.0831L20.4078 17.8364C20.3153 17.7361 20.1947 17.6845 20.0588 17.6845V18.0482ZM20.1509 18.0933C20.1751 18.1157 20.1858 18.1387 20.1858 18.1752H20.5494C20.5494 18.0393 20.4978 17.9187 20.3975 17.8261L20.1509 18.0933ZM20.1858 18.1752C20.1858 18.2116 20.1751 18.2347 20.1509 18.257L20.3975 18.5242C20.4978 18.4317 20.5494 18.3111 20.5494 18.1752H20.1858ZM20.1457 18.2621C20.1245 18.2832 20.1 18.295 20.0588 18.295V18.6586C20.1899 18.6586 20.309 18.613 20.4028 18.5192L20.1457 18.2621ZM20.0588 18.295H17.8468V18.6586H20.0588V18.295ZM17.6649 18.4768V20.3944H18.0286V18.4768H17.6649ZM17.6649 20.3944C17.6649 20.4345 17.6527 20.4629 17.6225 20.491L17.8699 20.7574C17.9738 20.661 18.0286 20.5362 18.0286 20.3944H17.6649ZM17.6176 20.4956C17.5908 20.5225 17.5609 20.5357 17.5164 20.5357V20.8994C17.6538 20.8994 17.7772 20.8503 17.8748 20.7528L17.6176 20.4956Z" fill="white" mask="url(#path-4-outside-1_11043_1110)"/>
<mask id="mask1_11043_1110" style="mask-type:alpha" maskUnits="userSpaceOnUse" x="0" y="0" width="26" height="29">
<path d="M23.3631 28.5H2.63586C1.5313 28.5 0.635864 27.6046 0.635864 26.5V2.5C0.635864 1.39543 1.5313 0.5 2.63586 0.5H16.0904L25.3631 9.77273V26.5C25.3631 27.6046 24.4677 28.5 23.3631 28.5Z" fill="url(#paint2_linear_11043_1110)"/>
</mask>
<g mask="url(#mask1_11043_1110)">
<ellipse opacity="0.08" cx="-1.86425" cy="-0.0908203" rx="20.3182" ry="19.5" fill="url(#paint3_linear_11043_1110)"/>
<ellipse opacity="0.08" cx="-1.86423" cy="-0.0910864" rx="12.7727" ry="12.2273" fill="url(#paint4_linear_11043_1110)"/>
</g>
<g filter="url(#filter0_d_11043_1110)">
<path d="M25.3634 9.77273H18.0906C16.9861 9.77273 16.0906 8.8773 16.0906 7.77273V0.5L25.3634 9.77273Z" fill="url(#paint5_linear_11043_1110)"/>
</g>
</g>
<defs>
<filter id="filter0_d_11043_1110" x="13.9997" y="-1.68182" width="13.8182" height="13.8179" filterUnits="userSpaceOnUse" color-interpolation-filters="sRGB">
<feFlood flood-opacity="0" result="BackgroundImageFix"/>
<feColorMatrix in="SourceAlpha" type="matrix" values="0 0 0 0 0 0 0 0 0 0 0 0 0 0 0 0 0 0 127 0" result="hardAlpha"/>
<feOffset dx="0.181818" dy="0.0909091"/>
<feGaussianBlur stdDeviation="1.13636"/>
<feColorMatrix type="matrix" values="0 0 0 0 0 0 0 0 0 0 0 0 0 0 0 0 0 0 0.33 0"/>
<feBlend mode="normal" in2="BackgroundImageFix" result="effect1_dropShadow_11043_1110"/>
<feBlend mode="normal" in="SourceGraphic" in2="effect1_dropShadow_11043_1110" result="shape"/>
</filter>
<linearGradient id="paint0_linear_11043_1110" x1="13.0002" y1="0.5" x2="13.0002" y2="28.5" gradientUnits="userSpaceOnUse">
<stop stop-color="#FF7979"/>
<stop offset="1" stop-color="#E85555"/>
</linearGradient>
<linearGradient id="paint1_linear_11043_1110" x1="12.9998" y1="0.5" x2="12.9998" y2="28.5" gradientUnits="userSpaceOnUse">
<stop stop-color="#FF7981"/>
<stop offset="1" stop-color="#E85567"/>
</linearGradient>
<linearGradient id="paint2_linear_11043_1110" x1="12.9995" y1="0.5" x2="12.9995" y2="28.5" gradientUnits="userSpaceOnUse">
<stop stop-color="#FF7981"/>
<stop offset="1" stop-color="#E85567"/>
</linearGradient>
<linearGradient id="paint3_linear_11043_1110" x1="-0.389003" y1="0.579283" x2="5.77274" y2="16.9326" gradientUnits="userSpaceOnUse">
<stop stop-color="white" stop-opacity="0"/>
<stop offset="1" stop-color="white"/>
</linearGradient>
<linearGradient id="paint4_linear_11043_1110" x1="-0.936841" y1="0.329095" x2="2.91944" y2="10.5897" gradientUnits="userSpaceOnUse">
<stop stop-color="white" stop-opacity="0"/>
<stop offset="1" stop-color="white"/>
</linearGradient>
<linearGradient id="paint5_linear_11043_1110" x1="20.727" y1="0.5" x2="20.727" y2="9.77273" gradientUnits="userSpaceOnUse">
<stop stop-color="#D03954"/>
<stop offset="1" stop-color="#C02A3C"/>
</linearGradient>
</defs>
</svg>
