<svg width="24" height="25" viewBox="0 0 24 25" fill="none" xmlns="http://www.w3.org/2000/svg">
<path d="M20 7.5V17.5C20 21.5 19 22.5 15 22.5H9C5 22.5 4 21.5 4 17.5V7.5C4 3.5 5 2.5 9 2.5H15C19 2.5 20 3.5 20 7.5Z" stroke="#404040" stroke-width="1.5" stroke-linecap="round" stroke-linejoin="round"/>
<path d="M14 6H10" stroke="#404040" stroke-width="1.5" stroke-linecap="round" stroke-linejoin="round"/>
<path d="M12 19.6C12.856 19.6 13.55 18.906 13.55 18.05C13.55 17.194 12.856 16.5 12 16.5C11.1439 16.5 10.45 17.194 10.45 18.05C10.45 18.906 11.1439 19.6 12 19.6Z" stroke="#404040" stroke-width="1.5" stroke-linecap="round" stroke-linejoin="round"/>
</svg>
