<svg width="28" height="29" viewBox="0 0 28 29" fill="none" xmlns="http://www.w3.org/2000/svg">
<mask id="mask0_10611_4651" style="mask-type:alpha" maskUnits="userSpaceOnUse" x="1" y="0" width="26" height="29">
<path d="M24.3632 28.5H3.63593C2.53136 28.5 1.63593 27.6046 1.63593 26.5V2.5C1.63593 1.39543 2.53136 0.5 3.63593 0.5H17.0905L26.3632 9.77273V26.5C26.3632 27.6046 25.4678 28.5 24.3632 28.5Z" fill="url(#paint0_linear_10611_4651)"/>
</mask>
<g mask="url(#mask0_10611_4651)">
<path d="M24.3632 28.5H3.63593C2.53136 28.5 1.63593 27.6046 1.63593 26.5V2.5C1.63593 1.39543 2.53136 0.5 3.63593 0.5H17.0905L26.3632 9.77273V26.5C26.3632 27.6046 25.4678 28.5 24.3632 28.5Z" fill="url(#paint1_linear_10611_4651)"/>
<g filter="url(#filter0_f_10611_4651)">
<rect x="5.99945" y="14.0459" width="16.1818" height="7.63636" fill="#0B07C6" fill-opacity="0.16" style="mix-blend-mode:darken"/>
</g>
<path opacity="0.09" fill-rule="evenodd" clip-rule="evenodd" d="M19.5588 11.1321C19.7134 11.2631 19.8025 11.4555 19.8025 11.6581V20.5977C19.8026 20.6052 19.8026 20.6128 19.8026 20.6204C19.8026 22.1433 18.568 23.3779 17.0451 23.3779C15.5221 23.3779 14.2875 22.1433 14.2875 20.6204C14.2875 19.0974 15.5221 17.8628 17.0451 17.8628C17.5473 17.8628 18.0182 17.9971 18.4238 18.2317V12.472L11.5298 13.6209V21.9821L11.5299 21.999C11.5299 23.5219 10.2953 24.7565 8.77229 24.7565C7.24932 24.7565 6.01471 23.5219 6.01471 21.999C6.01471 20.476 7.24932 19.2414 8.77229 19.2414C9.27454 19.2414 9.74543 19.3756 10.151 19.6103V13.0369C10.151 12.6999 10.3947 12.4123 10.7271 12.3569L18.9998 10.9781C19.1997 10.9448 19.4041 11.0011 19.5588 11.1321ZM18.4238 20.6044C18.4152 19.8503 17.8012 19.2416 17.0451 19.2416C16.2836 19.2416 15.6663 19.8589 15.6663 20.6204C15.6663 21.3819 16.2836 21.9992 17.0451 21.9992C17.8035 21.9992 18.4189 21.3868 18.4238 20.6295C18.4238 20.6264 18.4238 20.6234 18.4238 20.6203V20.6044ZM10.151 21.9991V21.987C10.1446 21.231 9.52977 20.6202 8.77229 20.6202C8.0108 20.6202 7.3935 21.2375 7.3935 21.999C7.3935 22.7604 8.0108 23.3777 8.77229 23.3777C9.53144 23.3777 10.1473 22.7642 10.1511 22.0059L10.151 21.9991Z" fill="white"/>
<mask id="path-5-outside-1_10611_4651" maskUnits="userSpaceOnUse" x="4.36316" y="14.6816" width="18" height="7" fill="black">
<rect fill="white" x="4.36316" y="14.6816" width="18" height="7"/>
<path d="M5.7446 20.7175C5.65363 20.7175 5.57702 20.6864 5.51478 20.6242C5.45253 20.5619 5.42141 20.4853 5.42141 20.3944V16.1068C5.42141 15.9775 5.4669 15.8674 5.55787 15.7765C5.64884 15.6807 5.75896 15.6328 5.88823 15.6328H6.12523C6.22099 15.6328 6.30717 15.6615 6.38378 15.719C6.46517 15.7765 6.52502 15.8483 6.56332 15.9345L8.1936 19.9994L9.82387 15.9345C9.86217 15.8483 9.91963 15.7765 9.99623 15.719C10.0776 15.6615 10.1662 15.6328 10.262 15.6328H10.499C10.6282 15.6328 10.7384 15.6807 10.8293 15.7765C10.9203 15.8674 10.9658 15.9775 10.9658 16.1068V20.3944C10.9658 20.4853 10.9347 20.5619 10.8724 20.6242C10.8102 20.6864 10.7336 20.7175 10.6426 20.7175C10.5516 20.7175 10.4726 20.6864 10.4056 20.6242C10.3434 20.5619 10.3122 20.4853 10.3122 20.3944V16.3151L8.65323 20.4159C8.61493 20.5069 8.55269 20.5811 8.46651 20.6385C8.38511 20.6912 8.29414 20.7175 8.1936 20.7175C8.09305 20.7175 7.99969 20.6912 7.91351 20.6385C7.83211 20.5811 7.77226 20.5069 7.73396 20.4159L6.07496 16.3151V20.3944C6.07496 20.4853 6.04144 20.5619 5.97441 20.6242C5.91217 20.6864 5.83557 20.7175 5.7446 20.7175ZM13.1837 20.7175C13.0927 20.7175 13.0161 20.6864 12.9539 20.6242C12.8916 20.5619 12.8605 20.4853 12.8605 20.3944V15.9991C12.8605 15.9081 12.8916 15.8315 12.9539 15.7693C13.0161 15.7022 13.0927 15.6687 13.1837 15.6687H14.8211C15.276 15.6687 15.647 15.7453 15.9343 15.8985C16.2216 16.0518 16.4275 16.2481 16.5519 16.4875C16.6764 16.7269 16.7387 16.9854 16.7387 17.2631C16.7387 17.5408 16.6764 17.7993 16.5519 18.0387C16.4275 18.2781 16.2216 18.4744 15.9343 18.6276C15.647 18.7809 15.276 18.8575 14.8211 18.8575H13.514V20.3944C13.514 20.4853 13.4805 20.5619 13.4135 20.6242C13.3512 20.6864 13.2746 20.7175 13.1837 20.7175ZM14.7565 18.2398C15.2449 18.2398 15.5872 18.1465 15.7835 17.9597C15.9846 17.773 16.0851 17.5408 16.0851 17.2631C16.0851 16.9854 15.9846 16.7532 15.7835 16.5665C15.5872 16.3797 15.2449 16.2864 14.7565 16.2864H13.514V18.2398H14.7565ZM19.6033 20.7535C19.0719 20.7535 18.5715 20.6577 18.1023 20.4662C18.0449 20.4422 17.9994 20.4087 17.9659 20.3656C17.9323 20.3178 17.9156 20.2603 17.9156 20.1933C17.9156 20.1119 17.9419 20.0425 17.9946 19.985C18.052 19.9228 18.1215 19.8916 18.2029 19.8916C18.246 19.8916 18.2914 19.9012 18.3393 19.9204C18.684 20.0592 19.0647 20.1286 19.4812 20.1286C19.8547 20.1286 20.1683 20.0688 20.422 19.9491C20.6806 19.8246 20.8099 19.6187 20.8099 19.3315C20.8099 18.7282 20.2808 18.4265 19.2227 18.4265H19.1078C19.0264 18.4265 18.9546 18.3978 18.8923 18.3404C18.8349 18.2781 18.8061 18.2063 18.8061 18.1249C18.8061 18.0435 18.8349 17.9741 18.8923 17.9166C18.9546 17.8544 19.0264 17.8233 19.1078 17.8233H19.1509C19.6297 17.8233 19.9959 17.7515 20.2497 17.6078C20.5034 17.4594 20.6303 17.2415 20.6303 16.9543C20.6303 16.7245 20.5346 16.5425 20.343 16.4085C20.1515 16.2744 19.869 16.2074 19.4956 16.2074C19.0934 16.2074 18.7223 16.2864 18.3824 16.4444C18.3345 16.4635 18.2914 16.4731 18.2531 16.4731C18.1813 16.4731 18.1191 16.4492 18.0664 16.4013C18.0137 16.3486 17.9874 16.284 17.9874 16.2074C17.9874 16.0972 18.0353 16.0159 18.131 15.9632C18.5907 15.719 19.0647 15.5969 19.553 15.5969C20.1037 15.5969 20.5298 15.7094 20.8314 15.9345C21.133 16.1595 21.2839 16.4779 21.2839 16.8896C21.2839 17.22 21.2001 17.4809 21.0325 17.6725C20.8697 17.8592 20.6638 17.998 20.4149 18.089C20.6878 18.1512 20.9296 18.2829 21.1402 18.484C21.3557 18.6803 21.4634 18.9748 21.4634 19.3674C21.4634 19.8079 21.2887 20.1502 20.9391 20.3944C20.5944 20.6338 20.1491 20.7535 19.6033 20.7535Z"/>
</mask>
<path d="M5.7446 20.7175C5.65363 20.7175 5.57702 20.6864 5.51478 20.6242C5.45253 20.5619 5.42141 20.4853 5.42141 20.3944V16.1068C5.42141 15.9775 5.4669 15.8674 5.55787 15.7765C5.64884 15.6807 5.75896 15.6328 5.88823 15.6328H6.12523C6.22099 15.6328 6.30717 15.6615 6.38378 15.719C6.46517 15.7765 6.52502 15.8483 6.56332 15.9345L8.1936 19.9994L9.82387 15.9345C9.86217 15.8483 9.91963 15.7765 9.99623 15.719C10.0776 15.6615 10.1662 15.6328 10.262 15.6328H10.499C10.6282 15.6328 10.7384 15.6807 10.8293 15.7765C10.9203 15.8674 10.9658 15.9775 10.9658 16.1068V20.3944C10.9658 20.4853 10.9347 20.5619 10.8724 20.6242C10.8102 20.6864 10.7336 20.7175 10.6426 20.7175C10.5516 20.7175 10.4726 20.6864 10.4056 20.6242C10.3434 20.5619 10.3122 20.4853 10.3122 20.3944V16.3151L8.65323 20.4159C8.61493 20.5069 8.55269 20.5811 8.46651 20.6385C8.38511 20.6912 8.29414 20.7175 8.1936 20.7175C8.09305 20.7175 7.99969 20.6912 7.91351 20.6385C7.83211 20.5811 7.77226 20.5069 7.73396 20.4159L6.07496 16.3151V20.3944C6.07496 20.4853 6.04144 20.5619 5.97441 20.6242C5.91217 20.6864 5.83557 20.7175 5.7446 20.7175ZM13.1837 20.7175C13.0927 20.7175 13.0161 20.6864 12.9539 20.6242C12.8916 20.5619 12.8605 20.4853 12.8605 20.3944V15.9991C12.8605 15.9081 12.8916 15.8315 12.9539 15.7693C13.0161 15.7022 13.0927 15.6687 13.1837 15.6687H14.8211C15.276 15.6687 15.647 15.7453 15.9343 15.8985C16.2216 16.0518 16.4275 16.2481 16.5519 16.4875C16.6764 16.7269 16.7387 16.9854 16.7387 17.2631C16.7387 17.5408 16.6764 17.7993 16.5519 18.0387C16.4275 18.2781 16.2216 18.4744 15.9343 18.6276C15.647 18.7809 15.276 18.8575 14.8211 18.8575H13.514V20.3944C13.514 20.4853 13.4805 20.5619 13.4135 20.6242C13.3512 20.6864 13.2746 20.7175 13.1837 20.7175ZM14.7565 18.2398C15.2449 18.2398 15.5872 18.1465 15.7835 17.9597C15.9846 17.773 16.0851 17.5408 16.0851 17.2631C16.0851 16.9854 15.9846 16.7532 15.7835 16.5665C15.5872 16.3797 15.2449 16.2864 14.7565 16.2864H13.514V18.2398H14.7565ZM19.6033 20.7535C19.0719 20.7535 18.5715 20.6577 18.1023 20.4662C18.0449 20.4422 17.9994 20.4087 17.9659 20.3656C17.9323 20.3178 17.9156 20.2603 17.9156 20.1933C17.9156 20.1119 17.9419 20.0425 17.9946 19.985C18.052 19.9228 18.1215 19.8916 18.2029 19.8916C18.246 19.8916 18.2914 19.9012 18.3393 19.9204C18.684 20.0592 19.0647 20.1286 19.4812 20.1286C19.8547 20.1286 20.1683 20.0688 20.422 19.9491C20.6806 19.8246 20.8099 19.6187 20.8099 19.3315C20.8099 18.7282 20.2808 18.4265 19.2227 18.4265H19.1078C19.0264 18.4265 18.9546 18.3978 18.8923 18.3404C18.8349 18.2781 18.8061 18.2063 18.8061 18.1249C18.8061 18.0435 18.8349 17.9741 18.8923 17.9166C18.9546 17.8544 19.0264 17.8233 19.1078 17.8233H19.1509C19.6297 17.8233 19.9959 17.7515 20.2497 17.6078C20.5034 17.4594 20.6303 17.2415 20.6303 16.9543C20.6303 16.7245 20.5346 16.5425 20.343 16.4085C20.1515 16.2744 19.869 16.2074 19.4956 16.2074C19.0934 16.2074 18.7223 16.2864 18.3824 16.4444C18.3345 16.4635 18.2914 16.4731 18.2531 16.4731C18.1813 16.4731 18.1191 16.4492 18.0664 16.4013C18.0137 16.3486 17.9874 16.284 17.9874 16.2074C17.9874 16.0972 18.0353 16.0159 18.131 15.9632C18.5907 15.719 19.0647 15.5969 19.553 15.5969C20.1037 15.5969 20.5298 15.7094 20.8314 15.9345C21.133 16.1595 21.2839 16.4779 21.2839 16.8896C21.2839 17.22 21.2001 17.4809 21.0325 17.6725C20.8697 17.8592 20.6638 17.998 20.4149 18.089C20.6878 18.1512 20.9296 18.2829 21.1402 18.484C21.3557 18.6803 21.4634 18.9748 21.4634 19.3674C21.4634 19.8079 21.2887 20.1502 20.9391 20.3944C20.5944 20.6338 20.1491 20.7535 19.6033 20.7535Z" fill="white"/>
<path d="M5.51478 20.6242L5.64334 20.4956L5.51478 20.6242ZM5.55787 15.7765L5.68648 15.9051L5.68969 15.9017L5.55787 15.7765ZM6.38378 15.719L6.27464 15.8645L6.27893 15.8675L6.38378 15.719ZM6.56332 15.9345L6.73219 15.8667L6.72947 15.8606L6.56332 15.9345ZM8.1936 19.9994L8.02484 20.067L8.1936 20.4878L8.36235 20.067L8.1936 19.9994ZM9.82387 15.9345L9.65761 15.8606L9.65512 15.8668L9.82387 15.9345ZM9.99623 15.719L9.89134 15.5704L9.88714 15.5735L9.99623 15.719ZM10.8293 15.7765L10.6975 15.9017L10.7008 15.905L10.8293 15.7765ZM10.8724 20.6242L11.001 20.7528H11.001L10.8724 20.6242ZM10.4056 20.6242L10.2769 20.7528L10.2819 20.7574L10.4056 20.6242ZM10.3122 16.3151H10.4941L10.1437 16.2469L10.3122 16.3151ZM8.65323 20.4159L8.82082 20.4865L8.82178 20.4841L8.65323 20.4159ZM8.46651 20.6385L8.56529 20.7912L8.56736 20.7898L8.46651 20.6385ZM7.91351 20.6385L7.80842 20.7874L7.8187 20.7937L7.91351 20.6385ZM7.73396 20.4159L7.56539 20.4841L7.56639 20.4865L7.73396 20.4159ZM6.07496 16.3151L6.24351 16.2469L5.89314 16.3151H6.07496ZM5.97441 20.6242L5.85061 20.4909L5.84585 20.4956L5.97441 20.6242ZM5.7446 20.5357C5.70004 20.5357 5.67023 20.5225 5.64334 20.4956L5.38621 20.7528C5.48381 20.8503 5.60721 20.8994 5.7446 20.8994V20.5357ZM5.64334 20.4956C5.61645 20.4687 5.60323 20.4389 5.60323 20.3944H5.2396C5.2396 20.5318 5.28862 20.6552 5.38621 20.7528L5.64334 20.4956ZM5.60323 20.3944V16.1068H5.2396V20.3944H5.60323ZM5.60323 16.1068C5.60323 16.0255 5.62975 15.9617 5.68643 15.905L5.4293 15.6479C5.30405 15.7731 5.2396 15.9296 5.2396 16.1068H5.60323ZM5.68969 15.9017C5.74717 15.8412 5.81001 15.8146 5.88823 15.8146V15.451C5.70791 15.451 5.5505 15.5202 5.42605 15.6512L5.68969 15.9017ZM5.88823 15.8146H6.12523V15.451H5.88823V15.8146ZM6.12523 15.8146C6.18165 15.8146 6.22955 15.8306 6.27469 15.8645L6.49287 15.5735C6.38479 15.4925 6.26033 15.451 6.12523 15.451V15.8146ZM6.27893 15.8675C6.3351 15.9072 6.37295 15.9538 6.39718 16.0083L6.72947 15.8606C6.67709 15.7427 6.59524 15.6457 6.48863 15.5705L6.27893 15.8675ZM6.39457 16.0021L8.02484 20.067L8.36235 19.9317L6.73208 15.8668L6.39457 16.0021ZM8.36235 20.067L9.99262 16.0021L9.65512 15.8668L8.02484 19.9317L8.36235 20.067ZM9.99002 16.0083C10.0155 15.9509 10.0531 15.9036 10.1053 15.8645L9.88714 15.5735C9.78612 15.6493 9.70882 15.7456 9.65772 15.8606L9.99002 16.0083ZM10.1011 15.8675C10.1531 15.8308 10.2053 15.8146 10.262 15.8146V15.451C10.1271 15.451 10.0021 15.4923 9.89138 15.5705L10.1011 15.8675ZM10.262 15.8146H10.499V15.451H10.262V15.8146ZM10.499 15.8146C10.5772 15.8146 10.64 15.8412 10.6975 15.9017L10.9611 15.6512C10.8367 15.5202 10.6793 15.451 10.499 15.451V15.8146ZM10.7008 15.905C10.7574 15.9617 10.784 16.0255 10.784 16.1068H11.1476C11.1476 15.9296 11.0831 15.7731 10.9579 15.6479L10.7008 15.905ZM10.784 16.1068V20.3944H11.1476V16.1068H10.784ZM10.784 20.3944C10.784 20.4389 10.7707 20.4687 10.7438 20.4956L11.001 20.7528C11.0986 20.6552 11.1476 20.5318 11.1476 20.3944H10.784ZM10.7438 20.4956C10.717 20.5225 10.6871 20.5357 10.6426 20.5357V20.8994C10.78 20.8994 10.9034 20.8503 11.001 20.7528L10.7438 20.4956ZM10.6426 20.5357C10.5978 20.5357 10.5629 20.5222 10.5293 20.491L10.2819 20.7574C10.3823 20.8507 10.5055 20.8994 10.6426 20.8994V20.5357ZM10.5342 20.4956C10.5073 20.4687 10.4941 20.4389 10.4941 20.3944H10.1304C10.1304 20.5318 10.1794 20.6552 10.277 20.7528L10.5342 20.4956ZM10.4941 20.3944V16.3151H10.1304V20.3944H10.4941ZM10.1437 16.2469L8.48468 20.3477L8.82178 20.4841L10.4808 16.3833L10.1437 16.2469ZM8.48566 20.3454C8.4619 20.4018 8.4237 20.4486 8.36565 20.4873L8.56736 20.7898C8.68167 20.7136 8.76796 20.612 8.8208 20.4865L8.48566 20.3454ZM8.36773 20.4859C8.31689 20.5188 8.26047 20.5357 8.1936 20.5357V20.8994C8.32782 20.8994 8.45333 20.8636 8.56528 20.7912L8.36773 20.4859ZM8.1936 20.5357C8.12667 20.5357 8.06609 20.5187 8.00831 20.4834L7.8187 20.7937C7.93329 20.8637 8.05944 20.8994 8.1936 20.8994V20.5357ZM8.01836 20.49C7.96448 20.452 7.9265 20.4047 7.90153 20.3454L7.56639 20.4865C7.61802 20.6091 7.69975 20.7102 7.80865 20.7871L8.01836 20.49ZM7.90251 20.3477L6.24351 16.2469L5.90641 16.3833L7.56541 20.4841L7.90251 20.3477ZM5.89314 16.3151V20.3944H6.25678V16.3151H5.89314ZM5.89314 20.3944C5.89314 20.4345 5.88091 20.4629 5.8507 20.491L6.09813 20.7574C6.20198 20.661 6.25678 20.5362 6.25678 20.3944H5.89314ZM5.84585 20.4956C5.81896 20.5225 5.78915 20.5357 5.7446 20.5357V20.8994C5.88198 20.8994 6.00538 20.8503 6.10298 20.7528L5.84585 20.4956ZM12.9539 20.6242L13.0824 20.4956L12.9539 20.6242ZM12.9539 15.7693L13.0825 15.8979L13.0871 15.893L12.9539 15.7693ZM15.9343 15.8985L16.0199 15.7381L15.9343 15.8985ZM16.5519 16.4875L16.3906 16.5713L16.5519 16.4875ZM16.5519 18.0387L16.3906 17.9548L16.5519 18.0387ZM15.9343 18.6276L16.0199 18.7881L15.9343 18.6276ZM13.514 18.8575V18.6756H13.3322V18.8575H13.514ZM13.4135 20.6242L13.2897 20.4909L13.2849 20.4956L13.4135 20.6242ZM15.7835 17.9597L15.6598 17.8265L15.6582 17.828L15.7835 17.9597ZM15.7835 16.5665L15.6582 16.6982L15.6598 16.6997L15.7835 16.5665ZM13.514 16.2864V16.1045H13.3322V16.2864H13.514ZM13.514 18.2398H13.3322V18.4216H13.514V18.2398ZM13.1837 20.5357C13.1391 20.5357 13.1093 20.5225 13.0824 20.4956L12.8253 20.7528C12.9229 20.8503 13.0463 20.8994 13.1837 20.8994V20.5357ZM13.0824 20.4956C13.0555 20.4687 13.0423 20.4389 13.0423 20.3944H12.6787C12.6787 20.5318 12.7277 20.6552 12.8253 20.7528L13.0824 20.4956ZM13.0423 20.3944V15.9991H12.6787V20.3944H13.0423ZM13.0423 15.9991C13.0423 15.9545 13.0555 15.9247 13.0824 15.8978L12.8253 15.6407C12.7277 15.7383 12.6787 15.8617 12.6787 15.9991H13.0423ZM13.0871 15.893C13.1151 15.8628 13.1436 15.8505 13.1837 15.8505V15.4869C13.0418 15.4869 12.917 15.5417 12.8206 15.6456L13.0871 15.893ZM13.1837 15.8505H14.8211V15.4869H13.1837V15.8505ZM14.8211 15.8505C15.2573 15.8505 15.5962 15.9243 15.8487 16.059L16.0199 15.7381C15.6979 15.5664 15.2946 15.4869 14.8211 15.4869V15.8505ZM15.8487 16.059C16.1104 16.1985 16.2863 16.3708 16.3906 16.5713L16.7133 16.4036C16.5686 16.1254 16.3327 15.905 16.0199 15.7381L15.8487 16.059ZM16.3906 16.5713C16.5012 16.7841 16.5569 17.0137 16.5569 17.2631H16.9205C16.9205 16.9571 16.8516 16.6697 16.7133 16.4036L16.3906 16.5713ZM16.5569 17.2631C16.5569 17.5125 16.5012 17.7421 16.3906 17.9548L16.7133 18.1226C16.8516 17.8565 16.9205 17.5691 16.9205 17.2631H16.5569ZM16.3906 17.9548C16.2863 18.1554 16.1104 18.3277 15.8487 18.4672L16.0199 18.7881C16.3327 18.6212 16.5686 18.4008 16.7133 18.1226L16.3906 17.9548ZM15.8487 18.4672C15.5962 18.6019 15.2573 18.6756 14.8211 18.6756V19.0393C15.2946 19.0393 15.6979 18.9598 16.0199 18.7881L15.8487 18.4672ZM14.8211 18.6756H13.514V19.0393H14.8211V18.6756ZM13.3322 18.8575V20.3944H13.6959V18.8575H13.3322ZM13.3322 20.3944C13.3322 20.4345 13.32 20.4629 13.2898 20.491L13.5372 20.7574C13.6411 20.661 13.6959 20.5362 13.6959 20.3944H13.3322ZM13.2849 20.4956C13.258 20.5225 13.2282 20.5357 13.1837 20.5357V20.8994C13.3211 20.8994 13.4445 20.8503 13.5421 20.7528L13.2849 20.4956ZM14.7565 18.4216C15.2576 18.4216 15.6603 18.3279 15.9088 18.0915L15.6582 17.828C15.5141 17.965 15.2321 18.058 14.7565 18.058V18.4216ZM15.9072 18.093C16.1458 17.8714 16.2669 17.5907 16.2669 17.2631H15.9033C15.9033 17.4909 15.8233 17.6746 15.6598 17.8265L15.9072 18.093ZM16.2669 17.2631C16.2669 16.9355 16.1458 16.6548 15.9072 16.4332L15.6598 16.6997C15.8233 16.8516 15.9033 17.0353 15.9033 17.2631H16.2669ZM15.9088 16.4347C15.6603 16.1983 15.2576 16.1045 14.7565 16.1045V16.4682C15.2321 16.4682 15.5141 16.5612 15.6582 16.6982L15.9088 16.4347ZM14.7565 16.1045H13.514V16.4682H14.7565V16.1045ZM13.3322 16.2864V18.2398H13.6959V16.2864H13.3322ZM13.514 18.4216H14.7565V18.058H13.514V18.4216ZM18.1023 20.4662L18.0324 20.634L18.0336 20.6345L18.1023 20.4662ZM17.9659 20.3656L17.8167 20.47L17.8223 20.4773L17.9659 20.3656ZM17.9946 19.985L17.861 19.8617L17.8606 19.8621L17.9946 19.985ZM18.3393 19.9204L18.4072 19.7517L18.4068 19.7516L18.3393 19.9204ZM20.422 19.9491L20.4996 20.1135L20.5009 20.1129L20.422 19.9491ZM18.8923 18.3404L18.7587 18.4637L18.7636 18.469L18.769 18.474L18.8923 18.3404ZM18.8923 17.9166L19.0209 18.0452L18.8923 17.9166ZM20.2497 17.6078L20.3393 17.7661L20.3415 17.7648L20.2497 17.6078ZM18.3824 16.4444L18.45 16.6134L18.459 16.6092L18.3824 16.4444ZM18.0664 16.4013L17.9377 16.53L17.9441 16.5358L18.0664 16.4013ZM18.131 15.9632L18.0457 15.8026L18.0434 15.8039L18.131 15.9632ZM20.8314 15.9345L20.9401 15.7887L20.8314 15.9345ZM21.0325 17.6725L20.8957 17.5527L20.8955 17.553L21.0325 17.6725ZM20.4149 18.089L20.3525 17.9182L19.7744 18.1294L20.3744 18.2663L20.4149 18.089ZM21.1402 18.484L21.0147 18.6156L21.0178 18.6184L21.1402 18.484ZM20.9391 20.3944L21.0428 20.5437L21.0433 20.5434L20.9391 20.3944ZM19.6033 20.5716C19.0943 20.5716 18.6174 20.48 18.171 20.2979L18.0336 20.6345C18.5257 20.8354 19.0495 20.9353 19.6033 20.9353V20.5716ZM18.1722 20.2984C18.1396 20.2848 18.1211 20.269 18.1094 20.254L17.8223 20.4773C17.8777 20.5484 17.9501 20.5997 18.0324 20.634L18.1722 20.2984ZM18.1148 20.2614C18.1057 20.2484 18.0974 20.2287 18.0974 20.1933H17.7338C17.7338 20.2919 17.759 20.3871 17.8169 20.4699L18.1148 20.2614ZM18.0974 20.1933C18.0974 20.1552 18.1082 20.1302 18.1286 20.1079L17.8606 19.8621C17.7757 19.9547 17.7338 20.0686 17.7338 20.1933H18.0974ZM18.1282 20.1083C18.1528 20.0817 18.1745 20.0735 18.2029 20.0735V19.7098C18.0684 19.7098 17.9513 19.7639 17.861 19.8617L18.1282 20.1083ZM18.2029 20.0735C18.2188 20.0735 18.2413 20.077 18.2718 20.0892L18.4068 19.7516C18.3416 19.7255 18.2732 19.7098 18.2029 19.7098V20.0735ZM18.2714 20.089C18.6402 20.2376 19.0442 20.3105 19.4812 20.3105V19.9468C19.0852 19.9468 18.7279 19.8809 18.4072 19.7517L18.2714 20.089ZM19.4812 20.3105C19.873 20.3105 20.215 20.2478 20.4996 20.1135L20.3445 19.7847C20.1216 19.8898 19.8363 19.9468 19.4812 19.9468V20.3105ZM20.5009 20.1129C20.6554 20.0385 20.781 19.9348 20.8669 19.798C20.9528 19.6612 20.9917 19.503 20.9917 19.3315H20.628C20.628 19.4472 20.6023 19.5356 20.5589 19.6046C20.5156 19.6737 20.4472 19.7352 20.3432 19.7853L20.5009 20.1129ZM20.9917 19.3315C20.9917 18.9637 20.8237 18.6776 20.5031 18.4948C20.1977 18.3207 19.7631 18.2447 19.2227 18.2447V18.6084C19.7404 18.6084 20.0993 18.6832 20.323 18.8107C20.5315 18.9296 20.628 19.0959 20.628 19.3315H20.9917ZM19.2227 18.2447H19.1078V18.6084H19.2227V18.2447ZM19.1078 18.2447C19.0741 18.2447 19.0458 18.2346 19.0156 18.2068L18.769 18.474C18.8633 18.561 18.9787 18.6084 19.1078 18.6084V18.2447ZM19.0259 18.217C18.9981 18.1869 18.988 18.1586 18.988 18.1249H18.6243C18.6243 18.254 18.6717 18.3694 18.7587 18.4637L19.0259 18.217ZM18.988 18.1249C18.988 18.0916 18.9976 18.0685 19.0209 18.0452L18.7638 17.7881C18.6721 17.8797 18.6243 17.9954 18.6243 18.1249H18.988ZM19.0209 18.0452C19.0521 18.014 19.0788 18.0051 19.1078 18.0051V17.6415C18.974 17.6415 18.857 17.6948 18.7638 17.7881L19.0209 18.0452ZM19.1078 18.0051H19.1509V17.6415H19.1078V18.0051ZM19.1509 18.0051C19.6431 18.0051 20.0459 17.9321 20.3392 17.7661L20.1601 17.4496C19.9459 17.5708 19.6162 17.6415 19.1509 17.6415V18.0051ZM20.3415 17.7648C20.6494 17.5847 20.8121 17.308 20.8121 16.9543H20.4485C20.4485 17.1751 20.3575 17.3341 20.1579 17.4509L20.3415 17.7648ZM20.8121 16.9543C20.8121 16.6639 20.6864 16.4269 20.4473 16.2595L20.2388 16.5574C20.3827 16.6581 20.4485 16.785 20.4485 16.9543H20.8121ZM20.4473 16.2595C20.2119 16.0947 19.8859 16.0255 19.4956 16.0255V16.3892C19.8522 16.3892 20.0912 16.4541 20.2388 16.5574L20.4473 16.2595ZM19.4956 16.0255C19.0689 16.0255 18.6714 16.1095 18.3058 16.2795L18.459 16.6092C18.7733 16.4632 19.1179 16.3892 19.4956 16.3892V16.0255ZM18.3149 16.2756C18.2815 16.2889 18.2618 16.2913 18.2531 16.2913V16.6549C18.3211 16.6549 18.3876 16.6381 18.4499 16.6132L18.3149 16.2756ZM18.2531 16.2913C18.2261 16.2913 18.2076 16.2839 18.1887 16.2667L17.9441 16.5358C18.0306 16.6144 18.1365 16.6549 18.2531 16.6549V16.2913ZM18.195 16.2727C18.1775 16.2552 18.1692 16.2373 18.1692 16.2074H17.8056C17.8056 16.3307 17.85 16.442 17.9378 16.5298L18.195 16.2727ZM18.1692 16.2074C18.1692 16.1793 18.1751 16.1643 18.18 16.1559C18.1849 16.1476 18.1949 16.1356 18.2187 16.1225L18.0434 15.8039C17.9715 15.8434 17.9096 15.8985 17.8666 15.9715C17.8237 16.0445 17.8056 16.1253 17.8056 16.2074H18.1692ZM18.2163 16.1238C18.6515 15.8926 19.0964 15.7787 19.553 15.7787V15.4151C19.033 15.4151 18.5299 15.5454 18.0457 15.8026L18.2163 16.1238ZM19.553 15.7787C20.0819 15.7787 20.464 15.8872 20.7227 16.0802L20.9401 15.7887C20.5955 15.5316 20.1254 15.4151 19.553 15.4151V15.7787ZM20.7227 16.0802C20.9735 16.2673 21.102 16.529 21.102 16.8896H21.4657C21.4657 16.4267 21.2926 16.0516 20.9401 15.7887L20.7227 16.0802ZM21.102 16.8896C21.102 17.1894 21.0265 17.4032 20.8957 17.5527L21.1693 17.7922C21.3737 17.5587 21.4657 17.2506 21.4657 16.8896H21.102ZM20.8955 17.553C20.7542 17.715 20.5747 17.837 20.3525 17.9182L20.4773 18.2598C20.753 18.159 20.9852 18.0034 21.1695 17.7919L20.8955 17.553ZM20.3744 18.2663C20.614 18.3209 20.8267 18.4361 21.0147 18.6155L21.2658 18.3525C21.0324 18.1297 20.7615 17.9816 20.4553 17.9117L20.3744 18.2663ZM21.0178 18.6184C21.1836 18.7695 21.2816 19.0074 21.2816 19.3674H21.6452C21.6452 18.9422 21.5278 18.5911 21.2627 18.3496L21.0178 18.6184ZM21.2816 19.3674C21.2816 19.7508 21.134 20.0365 20.835 20.2453L21.0433 20.5434C21.4434 20.2639 21.6452 19.8649 21.6452 19.3674H21.2816ZM20.8354 20.245C20.5291 20.4577 20.1231 20.5716 19.6033 20.5716V20.9353C20.1751 20.9353 20.6597 20.8098 21.0428 20.5437L20.8354 20.245Z" fill="white" mask="url(#path-5-outside-1_10611_4651)"/>
<mask id="mask1_10611_4651" style="mask-type:alpha" maskUnits="userSpaceOnUse" x="1" y="0" width="26" height="29">
<path d="M24.3632 28.5H3.63593C2.53136 28.5 1.63593 27.6046 1.63593 26.5V2.5C1.63593 1.39543 2.53136 0.5 3.63593 0.5H17.0905L26.3632 9.77273V26.5C26.3632 27.6046 25.4678 28.5 24.3632 28.5Z" fill="url(#paint2_linear_10611_4651)"/>
</mask>
<g mask="url(#mask1_10611_4651)">
<ellipse opacity="0.05" cx="0.317757" cy="-0.636719" rx="20.3182" ry="19.5" fill="url(#paint3_linear_10611_4651)"/>
<ellipse opacity="0.05" cx="0.317712" cy="-0.636008" rx="12.7727" ry="12.2273" fill="url(#paint4_linear_10611_4651)"/>
</g>
<g filter="url(#filter1_d_10611_4651)">
<path d="M26.3631 9.77273H19.0903C17.9858 9.77273 17.0903 8.8773 17.0903 7.77273V0.5L26.3631 9.77273Z" fill="url(#paint5_linear_10611_4651)"/>
</g>
</g>
<defs>
<filter id="filter0_f_10611_4651" x="2.454" y="10.5004" width="23.2727" height="14.7276" filterUnits="userSpaceOnUse" color-interpolation-filters="sRGB">
<feFlood flood-opacity="0" result="BackgroundImageFix"/>
<feBlend mode="normal" in="SourceGraphic" in2="BackgroundImageFix" result="shape"/>
<feGaussianBlur stdDeviation="1.77273" result="effect1_foregroundBlur_10611_4651"/>
</filter>
<filter id="filter1_d_10611_4651" x="14.9994" y="-1.68182" width="13.8182" height="13.8179" filterUnits="userSpaceOnUse" color-interpolation-filters="sRGB">
<feFlood flood-opacity="0" result="BackgroundImageFix"/>
<feColorMatrix in="SourceAlpha" type="matrix" values="0 0 0 0 0 0 0 0 0 0 0 0 0 0 0 0 0 0 127 0" result="hardAlpha"/>
<feOffset dx="0.181818" dy="0.0909091"/>
<feGaussianBlur stdDeviation="1.13636"/>
<feColorMatrix type="matrix" values="0 0 0 0 0 0 0 0 0 0 0 0 0 0 0 0 0 0 0.33 0"/>
<feBlend mode="normal" in2="BackgroundImageFix" result="effect1_dropShadow_10611_4651"/>
<feBlend mode="normal" in="SourceGraphic" in2="effect1_dropShadow_10611_4651" result="shape"/>
</filter>
<linearGradient id="paint0_linear_10611_4651" x1="13.9996" y1="0.5" x2="13.9996" y2="28.5" gradientUnits="userSpaceOnUse">
<stop stop-color="#FF7979"/>
<stop offset="1" stop-color="#E85555"/>
</linearGradient>
<linearGradient id="paint1_linear_10611_4651" x1="13.9996" y1="0.5" x2="13.9996" y2="28.5" gradientUnits="userSpaceOnUse">
<stop stop-color="#7CA9FF"/>
<stop offset="1" stop-color="#4377DC"/>
</linearGradient>
<linearGradient id="paint2_linear_10611_4651" x1="13.9996" y1="0.5" x2="13.9996" y2="28.5" gradientUnits="userSpaceOnUse">
<stop stop-color="#7CA9FF"/>
<stop offset="1" stop-color="#4377DC"/>
</linearGradient>
<linearGradient id="paint3_linear_10611_4651" x1="1.793" y1="0.0333841" x2="7.95475" y2="16.3867" gradientUnits="userSpaceOnUse">
<stop stop-color="white" stop-opacity="0"/>
<stop offset="1" stop-color="white"/>
</linearGradient>
<linearGradient id="paint4_linear_10611_4651" x1="1.2451" y1="-0.215827" x2="5.10139" y2="10.0448" gradientUnits="userSpaceOnUse">
<stop stop-color="white" stop-opacity="0"/>
<stop offset="1" stop-color="white"/>
</linearGradient>
<linearGradient id="paint5_linear_10611_4651" x1="21.7267" y1="0.5" x2="21.7267" y2="9.77273" gradientUnits="userSpaceOnUse">
<stop stop-color="#4B7BF7"/>
<stop offset="1" stop-color="#1A4DD1"/>
</linearGradient>
</defs>
</svg>
