<svg width="32" height="32" viewBox="0 0 32 32" fill="none" xmlns="http://www.w3.org/2000/svg">
<rect width="32" height="32" rx="16" fill="#FFE0E5"/>
<path d="M15.9999 17.334C12.6599 17.334 9.93994 19.574 9.93994 22.334C9.93994 22.5207 10.0866 22.6673 10.2733 22.6673H21.7266C21.9133 22.6673 22.0599 22.5207 22.0599 22.334C22.0599 19.574 19.3399 17.334 15.9999 17.334Z" fill="url(#paint0_linear_10876_8338)"/>
<path d="M16 9.33398C15.2133 9.33398 14.4933 9.60732 13.92 10.0673C13.1533 10.674 12.6666 11.614 12.6666 12.6673C12.6666 13.294 12.84 13.8807 13.1533 14.3807C13.7266 15.3473 14.78 16.0007 16 16.0007C16.84 16.0007 17.6066 15.694 18.1933 15.1673C18.4533 14.9473 18.68 14.6807 18.8533 14.3807C19.16 13.8807 19.3333 13.294 19.3333 12.6673C19.3333 10.8273 17.84 9.33398 16 9.33398ZM17.7266 12.3073L15.9466 13.9473C15.8266 14.0607 15.6733 14.114 15.52 14.114C15.36 14.114 15.2 14.054 15.08 13.934L14.26 13.1073C14.0133 12.8607 14.0133 12.4673 14.26 12.2207C14.5066 11.974 14.9 11.974 15.1466 12.2207L15.54 12.614L16.88 11.3807C17.1333 11.1473 17.5266 11.1607 17.76 11.414C17.9933 11.674 17.98 12.074 17.7266 12.3073Z" fill="url(#paint1_linear_10876_8338)"/>
<defs>
<linearGradient id="paint0_linear_10876_8338" x1="28.6874" y1="25.8507" x2="24.8473" y2="12.9103" gradientUnits="userSpaceOnUse">
<stop stop-color="#FFC79F"/>
<stop offset="0.528793" stop-color="#FF5050"/>
<stop offset="1" stop-color="#ED0226"/>
</linearGradient>
<linearGradient id="paint1_linear_10876_8338" x1="22.9787" y1="19.9798" x2="14.8203" y2="7.88167" gradientUnits="userSpaceOnUse">
<stop stop-color="#FFC79F"/>
<stop offset="0.528793" stop-color="#FF5050"/>
<stop offset="1" stop-color="#ED0226"/>
</linearGradient>
</defs>
</svg>
