<svg width="16" height="16" viewBox="0 0 16 16" fill="none" xmlns="http://www.w3.org/2000/svg">
<path d="M14.0466 3.48732C12.9733 3.38065 11.8999 3.30065 10.8199 3.24065V3.23398L10.6733 2.36732C10.5733 1.75398 10.4266 0.833984 8.86661 0.833984H7.11994C5.56661 0.833984 5.41994 1.71398 5.31328 2.36065L5.17328 3.21398C4.55328 3.25398 3.93328 3.29398 3.31328 3.35398L1.95328 3.48732C1.67328 3.51398 1.47328 3.76065 1.49994 4.03398C1.52661 4.30732 1.76661 4.50732 2.04661 4.48065L3.40661 4.34732C6.89994 4.00065 10.4199 4.13398 13.9533 4.48732C13.9733 4.48732 13.9866 4.48732 14.0066 4.48732C14.2599 4.48732 14.4799 4.29398 14.5066 4.03398C14.5266 3.76065 14.3266 3.51398 14.0466 3.48732Z" fill="#CB3A31"/>
<path d="M12.82 5.42602C12.66 5.25935 12.44 5.16602 12.2134 5.16602H3.7867C3.56004 5.16602 3.33337 5.25935 3.18004 5.42602C3.0267 5.59268 2.94004 5.81935 2.95337 6.05268L3.3667 12.8927C3.44004 13.906 3.53337 15.1727 5.86004 15.1727H10.14C12.4667 15.1727 12.56 13.9127 12.6334 12.8927L13.0467 6.05935C13.06 5.81935 12.9734 5.59268 12.82 5.42602ZM9.1067 11.8327H6.8867C6.61337 11.8327 6.3867 11.606 6.3867 11.3327C6.3867 11.0593 6.61337 10.8327 6.8867 10.8327H9.1067C9.38004 10.8327 9.6067 11.0593 9.6067 11.3327C9.6067 11.606 9.38004 11.8327 9.1067 11.8327ZM9.6667 9.16602H6.33337C6.06004 9.16602 5.83337 8.93935 5.83337 8.66602C5.83337 8.39268 6.06004 8.16602 6.33337 8.16602H9.6667C9.94004 8.16602 10.1667 8.39268 10.1667 8.66602C10.1667 8.93935 9.94004 9.16602 9.6667 9.16602Z" fill="#CB3A31"/>
</svg>
