<svg width="48" height="48" viewBox="0 0 48 48" fill="none" xmlns="http://www.w3.org/2000/svg">
<path d="M43.5927 28.3898C44.025 27.9575 44.3733 27.4171 44.6015 26.7806C44.8296 26.1441 44.9737 25.4716 45.0098 24.7391C45.0698 23.5022 44.8897 22.3853 44.4573 21.3526C44.037 20.3318 43.4126 19.3951 42.5719 18.5545C41.347 17.3295 39.7498 16.3088 37.7803 15.5162C35.8109 14.7236 33.6372 14.1351 31.2715 13.7629C28.8817 13.3906 26.4558 13.1984 23.97 13.1864C21.4841 13.1984 19.0583 13.3906 16.6925 13.7629C14.3388 14.1471 12.1771 14.7236 10.2437 15.5042C8.29822 16.2968 6.70103 17.3175 5.45209 18.5665C4.63548 19.3831 3.999 20.3078 3.56668 21.3165C3.12234 22.3373 2.90618 23.4661 2.94221 24.7031C2.95422 26.2282 3.42257 27.4411 4.31123 28.3298C4.64749 28.666 5.05579 28.9302 5.50013 29.0864C5.95647 29.2545 6.44884 29.3145 6.97723 29.2185L13.6903 28.0776C14.2067 27.9935 14.639 27.8734 15.0113 27.7173C15.3715 27.5732 15.6838 27.3811 15.9119 27.1529C16.2002 26.8647 16.4043 26.4924 16.5124 26.0481C16.6325 25.6158 16.6925 25.0994 16.6925 24.5229L16.7285 22.6615C16.7285 22.3973 16.8246 22.1812 17.0168 21.989C17.1128 21.893 17.2089 21.8209 17.329 21.7489C17.4611 21.6888 17.5692 21.6528 17.6652 21.6047C18.2777 21.4246 19.1664 21.2805 20.3192 21.1844C21.4841 21.1004 22.697 21.0403 23.958 21.0283C25.2429 21.0403 26.4558 21.0763 27.6327 21.1724C28.7856 21.2685 29.6622 21.4246 30.2867 21.6168C30.3708 21.6528 30.4789 21.6888 30.599 21.7368C30.731 21.7969 30.8391 21.881 30.9472 21.989C31.1514 22.1932 31.2354 22.4214 31.2354 22.6856L31.2474 24.4989C31.2474 25.0994 31.3075 25.6158 31.4396 26.0361C31.5477 26.4804 31.7398 26.8407 32.04 27.1409C32.2682 27.3691 32.5564 27.5612 32.9287 27.7173C33.301 27.8734 33.7333 27.9935 34.2377 28.0896L41.0348 29.2425C41.5632 29.3385 42.0315 29.3025 42.4638 29.1344C42.8842 28.9543 43.2564 28.7261 43.5927 28.3898Z" fill="white"/>
</svg>
