<svg width="17" height="16" viewBox="0 0 17 16" fill="none" xmlns="http://www.w3.org/2000/svg">
<path d="M5.91668 12.6663H5.58334C2.91668 12.6663 1.58334 11.9997 1.58334 8.66634V5.33301C1.58334 2.66634 2.91668 1.33301 5.58334 1.33301H10.9167C13.5833 1.33301 14.9167 2.66634 14.9167 5.33301V8.66634C14.9167 11.333 13.5833 12.6663 10.9167 12.6663H10.5833C10.3767 12.6663 10.1767 12.7663 10.05 12.933L9.05001 14.2663C8.61001 14.853 7.89001 14.853 7.45001 14.2663L6.45001 12.933C6.34334 12.7863 6.09668 12.6663 5.91668 12.6663Z" stroke="#ED0226" stroke-width="1.5" stroke-miterlimit="10" stroke-linecap="round" stroke-linejoin="round"/>
<path d="M10.9143 7.33333H10.9203" stroke="#ED0226" stroke-width="1.5" stroke-linecap="round" stroke-linejoin="round"/>
<path d="M8.247 7.33333H8.25299" stroke="#ED0226" stroke-width="1.5" stroke-linecap="round" stroke-linejoin="round"/>
<path d="M5.57967 7.33333H5.58566" stroke="#ED0226" stroke-width="1.5" stroke-linecap="round" stroke-linejoin="round"/>
</svg>
