<svg width="25" height="25" viewBox="0 0 25 25" fill="none" xmlns="http://www.w3.org/2000/svg">
<path d="M9.375 19.5H8.875C4.875 19.5 2.875 18.5 2.875 13.5V8.5C2.875 4.5 4.875 2.5 8.875 2.5H16.875C20.875 2.5 22.875 4.5 22.875 8.5V13.5C22.875 17.5 20.875 19.5 16.875 19.5H16.375C16.065 19.5 15.765 19.65 15.575 19.9L14.075 21.9C13.415 22.78 12.335 22.78 11.675 21.9L10.175 19.9C10.015 19.68 9.645 19.5 9.375 19.5Z" stroke="#404040" stroke-width="2" stroke-miterlimit="10" stroke-linecap="round" stroke-linejoin="round"/>
<path d="M16.8715 11.5H16.8804" stroke="#404040" stroke-width="2" stroke-linecap="round" stroke-linejoin="round"/>
<path d="M12.8705 11.5H12.8795" stroke="#404040" stroke-width="2" stroke-linecap="round" stroke-linejoin="round"/>
<path d="M8.86951 11.5H8.87849" stroke="#404040" stroke-width="2" stroke-linecap="round" stroke-linejoin="round"/>
</svg>
