<svg width="28" height="29" viewBox="0 0 28 29" fill="none" xmlns="http://www.w3.org/2000/svg">
<mask id="mask0_10611_4589" style="mask-type:alpha" maskUnits="userSpaceOnUse" x="1" y="0" width="26" height="29">
<path d="M24.3631 28.5H3.6358C2.53123 28.5 1.6358 27.6046 1.6358 26.5V2.5C1.6358 1.39543 2.53123 0.5 3.6358 0.5H17.0903L26.3631 9.77273V26.5C26.3631 27.6046 25.4676 28.5 24.3631 28.5Z" fill="url(#paint0_linear_10611_4589)"/>
</mask>
<g mask="url(#mask0_10611_4589)">
<path d="M24.3631 28.5H3.6358C2.53123 28.5 1.6358 27.6046 1.6358 26.5V2.5C1.6358 1.39543 2.53123 0.5 3.6358 0.5H17.0903L26.3631 9.77273V26.5C26.3631 27.6046 25.4676 28.5 24.3631 28.5Z" fill="url(#paint1_linear_10611_4589)"/>
<g filter="url(#filter0_f_10611_4589)">
<rect x="5.90857" y="13.5908" width="16.1818" height="7.63636" fill="#0F7D56" fill-opacity="0.33" style="mix-blend-mode:darken"/>
</g>
<path opacity="0.12" d="M16.7129 22.1933L15.4125 16.9917C15.3785 16.8557 15.3 16.7349 15.1894 16.6486C15.0789 16.5623 14.9427 16.5154 14.8025 16.5154H14.1737V14.6291H16.0601V13.3715H14.1737V12.1139H16.0601V10.8563H14.1737V10.2275H12.9161V12.1139H11.0298V13.3715H12.9161V14.6291H11.0298V15.8866H12.9161V16.5154H12.2873C12.1471 16.5154 12.0109 16.5623 11.9004 16.6486C11.7898 16.7349 11.7113 16.8557 11.6773 16.9917L10.3769 22.1933C10.2842 22.5641 10.2772 22.9512 10.3565 23.3251C10.4358 23.699 10.5993 24.0499 10.8345 24.3511C11.0697 24.6524 11.3705 24.8961 11.714 25.0637C12.0575 25.2313 12.4347 25.3184 12.8169 25.3184H14.2729C14.6551 25.3184 15.0323 25.2313 15.3758 25.0637C15.7193 24.8961 16.0201 24.6524 16.2553 24.3511C16.4905 24.0499 16.654 23.699 16.7333 23.3251C16.8126 22.9512 16.8056 22.5641 16.7129 22.1933ZM13.5449 23.4321C13.2962 23.4321 13.053 23.3583 12.8462 23.2201C12.6394 23.082 12.4782 22.8856 12.3831 22.6558C12.2879 22.426 12.263 22.1731 12.3115 21.9292C12.36 21.6852 12.4798 21.4611 12.6557 21.2853C12.8315 21.1094 13.0556 20.9896 13.2996 20.9411C13.5435 20.8926 13.7964 20.9175 14.0262 21.0127C14.2559 21.1078 14.4524 21.269 14.5905 21.4758C14.7287 21.6826 14.8025 21.9258 14.8025 22.1745C14.8025 22.508 14.67 22.8279 14.4341 23.0638C14.1983 23.2996 13.8784 23.4321 13.5449 23.4321Z" fill="white"/>
<mask id="path-5-outside-1_10611_4589" maskUnits="userSpaceOnUse" x="7.81769" y="14.6816" width="13" height="7" fill="black">
<rect fill="white" x="7.81769" y="14.6816" width="13" height="7"/>
<path d="M8.84253 20.6816C8.72762 20.6816 8.62947 20.6409 8.54808 20.5595C8.46668 20.4782 8.42599 20.38 8.42599 20.2651C8.42599 20.1598 8.45472 20.0712 8.51217 19.9994L11.5142 16.2935H8.74917C8.66299 16.2935 8.58878 16.2648 8.52653 16.2074C8.46908 16.1451 8.44035 16.0709 8.44035 15.9847C8.44035 15.8985 8.46908 15.8243 8.52653 15.7621C8.58878 15.6999 8.66299 15.6687 8.74917 15.6687H11.8661C12.0001 15.6687 12.1055 15.7118 12.1821 15.798C12.2635 15.8842 12.3042 15.9895 12.3042 16.114C12.3042 16.1619 12.2922 16.2122 12.2683 16.2648C12.2491 16.3175 12.2228 16.363 12.1893 16.4013L9.22317 20.0712H12.0384C12.1246 20.0712 12.1964 20.1023 12.2539 20.1645C12.3161 20.222 12.3473 20.2938 12.3473 20.38C12.3473 20.4662 12.3161 20.538 12.2539 20.5955C12.1964 20.6529 12.1246 20.6816 12.0384 20.6816H8.84253ZM14.1908 20.7175C14.0998 20.7175 14.0232 20.6864 13.961 20.6242C13.8987 20.5619 13.8676 20.4853 13.8676 20.3944V15.9632C13.8676 15.8722 13.8987 15.7956 13.961 15.7334C14.0232 15.6663 14.0998 15.6328 14.1908 15.6328C14.2818 15.6328 14.3584 15.6663 14.4206 15.7334C14.4876 15.7956 14.5212 15.8722 14.5212 15.9632V20.3944C14.5212 20.4853 14.4876 20.5619 14.4206 20.6242C14.3584 20.6864 14.2818 20.7175 14.1908 20.7175ZM16.7415 20.7175C16.6505 20.7175 16.5739 20.6864 16.5116 20.6242C16.4494 20.5619 16.4183 20.4853 16.4183 20.3944V15.9991C16.4183 15.9081 16.4494 15.8315 16.5116 15.7693C16.5739 15.7022 16.6505 15.6687 16.7415 15.6687H18.3789C18.8338 15.6687 19.2048 15.7453 19.4921 15.8985C19.7794 16.0518 19.9853 16.2481 20.1097 16.4875C20.2342 16.7269 20.2965 16.9854 20.2965 17.2631C20.2965 17.5408 20.2342 17.7993 20.1097 18.0387C19.9853 18.2781 19.7794 18.4744 19.4921 18.6276C19.2048 18.7809 18.8338 18.8575 18.3789 18.8575H17.0718V20.3944C17.0718 20.4853 17.0383 20.5619 16.9713 20.6242C16.909 20.6864 16.8324 20.7175 16.7415 20.7175ZM18.3143 18.2398C18.8027 18.2398 19.145 18.1465 19.3413 17.9597C19.5424 17.773 19.6429 17.5408 19.6429 17.2631C19.6429 16.9854 19.5424 16.7532 19.3413 16.5665C19.145 16.3797 18.8027 16.2864 18.3143 16.2864H17.0718V18.2398H18.3143Z"/>
</mask>
<path d="M8.84253 20.6816C8.72762 20.6816 8.62947 20.6409 8.54808 20.5595C8.46668 20.4782 8.42599 20.38 8.42599 20.2651C8.42599 20.1598 8.45472 20.0712 8.51217 19.9994L11.5142 16.2935H8.74917C8.66299 16.2935 8.58878 16.2648 8.52653 16.2074C8.46908 16.1451 8.44035 16.0709 8.44035 15.9847C8.44035 15.8985 8.46908 15.8243 8.52653 15.7621C8.58878 15.6999 8.66299 15.6687 8.74917 15.6687H11.8661C12.0001 15.6687 12.1055 15.7118 12.1821 15.798C12.2635 15.8842 12.3042 15.9895 12.3042 16.114C12.3042 16.1619 12.2922 16.2122 12.2683 16.2648C12.2491 16.3175 12.2228 16.363 12.1893 16.4013L9.22317 20.0712H12.0384C12.1246 20.0712 12.1964 20.1023 12.2539 20.1645C12.3161 20.222 12.3473 20.2938 12.3473 20.38C12.3473 20.4662 12.3161 20.538 12.2539 20.5955C12.1964 20.6529 12.1246 20.6816 12.0384 20.6816H8.84253ZM14.1908 20.7175C14.0998 20.7175 14.0232 20.6864 13.961 20.6242C13.8987 20.5619 13.8676 20.4853 13.8676 20.3944V15.9632C13.8676 15.8722 13.8987 15.7956 13.961 15.7334C14.0232 15.6663 14.0998 15.6328 14.1908 15.6328C14.2818 15.6328 14.3584 15.6663 14.4206 15.7334C14.4876 15.7956 14.5212 15.8722 14.5212 15.9632V20.3944C14.5212 20.4853 14.4876 20.5619 14.4206 20.6242C14.3584 20.6864 14.2818 20.7175 14.1908 20.7175ZM16.7415 20.7175C16.6505 20.7175 16.5739 20.6864 16.5116 20.6242C16.4494 20.5619 16.4183 20.4853 16.4183 20.3944V15.9991C16.4183 15.9081 16.4494 15.8315 16.5116 15.7693C16.5739 15.7022 16.6505 15.6687 16.7415 15.6687H18.3789C18.8338 15.6687 19.2048 15.7453 19.4921 15.8985C19.7794 16.0518 19.9853 16.2481 20.1097 16.4875C20.2342 16.7269 20.2965 16.9854 20.2965 17.2631C20.2965 17.5408 20.2342 17.7993 20.1097 18.0387C19.9853 18.2781 19.7794 18.4744 19.4921 18.6276C19.2048 18.7809 18.8338 18.8575 18.3789 18.8575H17.0718V20.3944C17.0718 20.4853 17.0383 20.5619 16.9713 20.6242C16.909 20.6864 16.8324 20.7175 16.7415 20.7175ZM18.3143 18.2398C18.8027 18.2398 19.145 18.1465 19.3413 17.9597C19.5424 17.773 19.6429 17.5408 19.6429 17.2631C19.6429 16.9854 19.5424 16.7532 19.3413 16.5665C19.145 16.3797 18.8027 16.2864 18.3143 16.2864H17.0718V18.2398H18.3143Z" fill="white"/>
<path d="M8.54808 20.5595L8.67664 20.431H8.67664L8.54808 20.5595ZM8.51217 19.9994L8.37089 19.8849L8.37019 19.8858L8.51217 19.9994ZM11.5142 16.2935L11.6554 16.408L11.8954 16.1117H11.5142V16.2935ZM8.52653 16.2074L8.39293 16.3307L8.39787 16.336L8.40321 16.341L8.52653 16.2074ZM8.52653 15.7621L8.39787 15.6334L8.39293 15.6388L8.52653 15.7621ZM12.1821 15.798L12.0461 15.9189L12.0499 15.9228L12.1821 15.798ZM12.2683 16.2648L12.1027 16.1896L12.0998 16.196L12.0974 16.2027L12.2683 16.2648ZM12.1893 16.4013L12.0523 16.2815L12.0479 16.287L12.1893 16.4013ZM9.22317 20.0712L9.08176 19.9569L8.84244 20.253H9.22317V20.0712ZM12.2539 20.1645L12.1203 20.2879L12.1252 20.2932L12.1306 20.2982L12.2539 20.1645ZM12.2539 20.5955L12.1305 20.4618L12.1253 20.4669L12.2539 20.5955ZM8.84253 20.4998C8.77594 20.4998 8.72401 20.4783 8.67664 20.431L8.41951 20.6881C8.53494 20.8035 8.67931 20.8635 8.84253 20.8635V20.4998ZM8.67664 20.431C8.62928 20.3836 8.60781 20.3317 8.60781 20.2651H8.24417C8.24417 20.4283 8.30409 20.5727 8.41951 20.6881L8.67664 20.431ZM8.60781 20.2651C8.60781 20.1947 8.62616 20.1479 8.65415 20.1129L8.37019 19.8858C8.28327 19.9944 8.24417 20.1248 8.24417 20.2651H8.60781ZM8.65345 20.1138L11.6554 16.408L11.3729 16.1791L8.37089 19.8849L8.65345 20.1138ZM11.5142 16.1117H8.74917V16.4754H11.5142V16.1117ZM8.74917 16.1117C8.70781 16.1117 8.67787 16.0996 8.64986 16.0738L8.40321 16.341C8.49968 16.43 8.61816 16.4754 8.74917 16.4754V16.1117ZM8.66013 16.084C8.63428 16.056 8.62217 16.0261 8.62217 15.9847H8.25853C8.25853 16.1157 8.30388 16.2342 8.39293 16.3307L8.66013 16.084ZM8.62217 15.9847C8.62217 15.9434 8.63428 15.9134 8.66013 15.8854L8.39293 15.6388C8.30388 15.7352 8.25853 15.8537 8.25853 15.9847H8.62217ZM8.6551 15.8907C8.68406 15.8617 8.71235 15.8505 8.74917 15.8505V15.4869C8.61362 15.4869 8.49349 15.538 8.39797 15.6335L8.6551 15.8907ZM8.74917 15.8505H11.8661V15.4869H8.74917V15.8505ZM11.8661 15.8505C11.9575 15.8505 12.0098 15.8779 12.0462 15.9188L12.318 15.6772C12.2011 15.5458 12.0428 15.4869 11.8661 15.4869V15.8505ZM12.0499 15.9228C12.0977 15.9735 12.1224 16.0334 12.1224 16.114H12.486C12.486 15.9457 12.4293 15.7949 12.3143 15.6732L12.0499 15.9228ZM12.1224 16.114C12.1224 16.1311 12.1181 16.1557 12.1027 16.1896L12.4338 16.3401C12.4663 16.2686 12.486 16.1927 12.486 16.114H12.1224ZM12.0974 16.2027C12.0851 16.2364 12.0697 16.2618 12.0524 16.2815L12.3261 16.521C12.3758 16.4641 12.4131 16.3986 12.4391 16.327L12.0974 16.2027ZM12.0479 16.287L9.08176 19.9569L9.36458 20.1855L12.3307 16.5156L12.0479 16.287ZM9.22317 20.253H12.0384V19.8894H9.22317V20.253ZM12.0384 20.253C12.0749 20.253 12.0979 20.2637 12.1203 20.2879L12.3875 20.0412C12.2949 19.941 12.1744 19.8894 12.0384 19.8894V20.253ZM12.1306 20.2982C12.1548 20.3205 12.1654 20.3436 12.1654 20.38H12.5291C12.5291 20.2441 12.4775 20.1235 12.3772 20.0309L12.1306 20.2982ZM12.1654 20.38C12.1654 20.4164 12.1548 20.4395 12.1306 20.4619L12.3772 20.7291C12.4775 20.6365 12.5291 20.5159 12.5291 20.38H12.1654ZM12.1253 20.4669C12.1042 20.488 12.0796 20.4998 12.0384 20.4998V20.8635C12.1696 20.8635 12.2887 20.8178 12.3825 20.724L12.1253 20.4669ZM12.0384 20.4998H8.84253V20.8635H12.0384V20.4998ZM13.961 20.6242L14.0895 20.4956L13.961 20.6242ZM13.961 15.7334L14.0896 15.862L14.0942 15.8571L13.961 15.7334ZM14.4206 15.7334L14.287 15.8574L14.2969 15.8666L14.4206 15.7334ZM14.4206 20.6242L14.2968 20.4909L14.2921 20.4956L14.4206 20.6242ZM14.1908 20.5357C14.1462 20.5357 14.1164 20.5225 14.0895 20.4956L13.8324 20.7528C13.93 20.8503 14.0534 20.8994 14.1908 20.8994V20.5357ZM14.0895 20.4956C14.0627 20.4687 14.0494 20.4389 14.0494 20.3944H13.6858C13.6858 20.5318 13.7348 20.6552 13.8324 20.7528L14.0895 20.4956ZM14.0494 20.3944V15.9632H13.6858V20.3944H14.0494ZM14.0494 15.9632C14.0494 15.9186 14.0627 15.8888 14.0895 15.8619L13.8324 15.6048C13.7348 15.7024 13.6858 15.8258 13.6858 15.9632H14.0494ZM14.0942 15.8571C14.1223 15.8269 14.1507 15.8146 14.1908 15.8146V15.451C14.049 15.451 13.9242 15.5058 13.8277 15.6096L14.0942 15.8571ZM14.1908 15.8146C14.2309 15.8146 14.2593 15.8269 14.2874 15.8571L14.5539 15.6096C14.4574 15.5058 14.3326 15.451 14.1908 15.451V15.8146ZM14.2969 15.8666C14.3271 15.8947 14.3393 15.9231 14.3393 15.9632H14.703C14.703 15.8213 14.6482 15.6966 14.5443 15.6001L14.2969 15.8666ZM14.3393 15.9632V20.3944H14.703V15.9632H14.3393ZM14.3393 20.3944C14.3393 20.4345 14.3271 20.4629 14.2969 20.491L14.5443 20.7574C14.6482 20.661 14.703 20.5362 14.703 20.3944H14.3393ZM14.2921 20.4956C14.2652 20.5225 14.2354 20.5357 14.1908 20.5357V20.8994C14.3282 20.8994 14.4516 20.8503 14.5492 20.7528L14.2921 20.4956ZM16.5117 20.6242L16.6402 20.4956L16.5117 20.6242ZM16.5117 15.7693L16.6403 15.8979L16.6449 15.893L16.5117 15.7693ZM19.4921 15.8985L19.5777 15.7381L19.4921 15.8985ZM20.1097 16.4875L19.9484 16.5713L20.1097 16.4875ZM20.1097 18.0387L19.9484 17.9548L20.1097 18.0387ZM19.4921 18.6276L19.5777 18.7881L19.4921 18.6276ZM17.0718 18.8575V18.6756H16.89V18.8575H17.0718ZM16.9713 20.6242L16.8475 20.4909L16.8427 20.4956L16.9713 20.6242ZM19.3413 17.9597L19.2176 17.8265L19.216 17.828L19.3413 17.9597ZM19.3413 16.5665L19.216 16.6982L19.2176 16.6997L19.3413 16.5665ZM17.0718 16.2864V16.1045H16.89V16.2864H17.0718ZM17.0718 18.2398H16.89V18.4216H17.0718V18.2398ZM16.7415 20.5357C16.6969 20.5357 16.6671 20.5225 16.6402 20.4956L16.3831 20.7528C16.4807 20.8503 16.6041 20.8994 16.7415 20.8994V20.5357ZM16.6402 20.4956C16.6133 20.4687 16.6001 20.4389 16.6001 20.3944H16.2365C16.2365 20.5318 16.2855 20.6552 16.3831 20.7528L16.6402 20.4956ZM16.6001 20.3944V15.9991H16.2365V20.3944H16.6001ZM16.6001 15.9991C16.6001 15.9545 16.6133 15.9247 16.6402 15.8978L16.3831 15.6407C16.2855 15.7383 16.2365 15.8617 16.2365 15.9991H16.6001ZM16.6449 15.893C16.6729 15.8628 16.7014 15.8505 16.7415 15.8505V15.4869C16.5996 15.4869 16.4748 15.5417 16.3784 15.6456L16.6449 15.893ZM16.7415 15.8505H18.3789V15.4869H16.7415V15.8505ZM18.3789 15.8505C18.8151 15.8505 19.154 15.9243 19.4065 16.059L19.5777 15.7381C19.2557 15.5664 18.8524 15.4869 18.3789 15.4869V15.8505ZM19.4065 16.059C19.6682 16.1985 19.8441 16.3708 19.9484 16.5713L20.2711 16.4036C20.1264 16.1254 19.8905 15.905 19.5777 15.7381L19.4065 16.059ZM19.9484 16.5713C20.059 16.7841 20.1147 17.0137 20.1147 17.2631H20.4783C20.4783 16.9571 20.4094 16.6697 20.2711 16.4036L19.9484 16.5713ZM20.1147 17.2631C20.1147 17.5125 20.059 17.7421 19.9484 17.9548L20.2711 18.1226C20.4094 17.8565 20.4783 17.5691 20.4783 17.2631H20.1147ZM19.9484 17.9548C19.8441 18.1554 19.6682 18.3277 19.4065 18.4672L19.5777 18.7881C19.8905 18.6212 20.1264 18.4008 20.2711 18.1226L19.9484 17.9548ZM19.4065 18.4672C19.154 18.6019 18.8151 18.6756 18.3789 18.6756V19.0393C18.8524 19.0393 19.2557 18.9598 19.5777 18.7881L19.4065 18.4672ZM18.3789 18.6756H17.0718V19.0393H18.3789V18.6756ZM16.89 18.8575V20.3944H17.2536V18.8575H16.89ZM16.89 20.3944C16.89 20.4345 16.8778 20.4629 16.8476 20.491L17.095 20.7574C17.1989 20.661 17.2536 20.5362 17.2536 20.3944H16.89ZM16.8427 20.4956C16.8158 20.5225 16.786 20.5357 16.7415 20.5357V20.8994C16.8789 20.8994 17.0023 20.8503 17.0999 20.7528L16.8427 20.4956ZM18.3143 18.4216C18.8154 18.4216 19.2181 18.3279 19.4666 18.0915L19.216 17.828C19.0719 17.965 18.7899 18.058 18.3143 18.058V18.4216ZM19.465 18.093C19.7036 17.8714 19.8247 17.5907 19.8247 17.2631H19.4611C19.4611 17.4909 19.3811 17.6746 19.2176 17.8265L19.465 18.093ZM19.8247 17.2631C19.8247 16.9355 19.7036 16.6548 19.465 16.4332L19.2176 16.6997C19.3811 16.8516 19.4611 17.0353 19.4611 17.2631H19.8247ZM19.4666 16.4347C19.2181 16.1983 18.8154 16.1045 18.3143 16.1045V16.4682C18.7899 16.4682 19.0719 16.5612 19.216 16.6982L19.4666 16.4347ZM18.3143 16.1045H17.0718V16.4682H18.3143V16.1045ZM16.89 16.2864V18.2398H17.2536V16.2864H16.89ZM17.0718 18.4216H18.3143V18.058H17.0718V18.4216Z" fill="white" mask="url(#path-5-outside-1_10611_4589)"/>
<mask id="mask1_10611_4589" style="mask-type:alpha" maskUnits="userSpaceOnUse" x="1" y="0" width="26" height="29">
<path d="M24.3631 28.5H3.6358C2.53123 28.5 1.6358 27.6046 1.6358 26.5V2.5C1.6358 1.39543 2.53123 0.5 3.6358 0.5H17.0903L26.3631 9.77273V26.5C26.3631 27.6046 25.4676 28.5 24.3631 28.5Z" fill="url(#paint2_linear_10611_4589)"/>
</mask>
<g mask="url(#mask1_10611_4589)">
<ellipse opacity="0.05" cx="1.22675" cy="-0.454102" rx="20.3182" ry="19.5" fill="url(#paint3_linear_10611_4589)"/>
<ellipse opacity="0.05" cx="1.22677" cy="-0.454368" rx="12.7727" ry="12.2273" fill="url(#paint4_linear_10611_4589)"/>
</g>
<mask id="mask2_10611_4589" style="mask-type:alpha" maskUnits="userSpaceOnUse" x="1" y="0" width="26" height="29">
<path d="M24.3631 28.5H3.6358C2.53123 28.5 1.6358 27.6046 1.6358 26.5V2.5C1.6358 1.39543 2.53123 0.5 3.6358 0.5H17.0903L26.3631 9.77273V26.5C26.3631 27.6046 25.4676 28.5 24.3631 28.5Z" fill="url(#paint5_linear_10611_4589)"/>
</mask>
<g mask="url(#mask2_10611_4589)">
</g>
<g filter="url(#filter1_d_10611_4589)">
<path d="M26.3631 9.77273H19.0903C17.9858 9.77273 17.0903 8.8773 17.0903 7.77273V0.5L26.3631 9.77273Z" fill="url(#paint6_linear_10611_4589)"/>
</g>
</g>
<defs>
<filter id="filter0_f_10611_4589" x="2.36311" y="10.0454" width="23.2727" height="14.7276" filterUnits="userSpaceOnUse" color-interpolation-filters="sRGB">
<feFlood flood-opacity="0" result="BackgroundImageFix"/>
<feBlend mode="normal" in="SourceGraphic" in2="BackgroundImageFix" result="shape"/>
<feGaussianBlur stdDeviation="1.77273" result="effect1_foregroundBlur_10611_4589"/>
</filter>
<filter id="filter1_d_10611_4589" x="14.9994" y="-1.68182" width="13.8182" height="13.8179" filterUnits="userSpaceOnUse" color-interpolation-filters="sRGB">
<feFlood flood-opacity="0" result="BackgroundImageFix"/>
<feColorMatrix in="SourceAlpha" type="matrix" values="0 0 0 0 0 0 0 0 0 0 0 0 0 0 0 0 0 0 127 0" result="hardAlpha"/>
<feOffset dx="0.181818" dy="0.0909091"/>
<feGaussianBlur stdDeviation="1.13636"/>
<feColorMatrix type="matrix" values="0 0 0 0 0 0 0 0 0 0 0 0 0 0 0 0 0 0 0.33 0"/>
<feBlend mode="normal" in2="BackgroundImageFix" result="effect1_dropShadow_10611_4589"/>
<feBlend mode="normal" in="SourceGraphic" in2="effect1_dropShadow_10611_4589" result="shape"/>
</filter>
<linearGradient id="paint0_linear_10611_4589" x1="13.9994" y1="0.5" x2="13.9994" y2="28.5" gradientUnits="userSpaceOnUse">
<stop stop-color="#FF7979"/>
<stop offset="1" stop-color="#E85555"/>
</linearGradient>
<linearGradient id="paint1_linear_10611_4589" x1="13.9994" y1="0.5" x2="13.9994" y2="28.5" gradientUnits="userSpaceOnUse">
<stop stop-color="#2EBC89"/>
<stop offset="1" stop-color="#1DA473"/>
</linearGradient>
<linearGradient id="paint2_linear_10611_4589" x1="13.9994" y1="0.5" x2="13.9994" y2="28.5" gradientUnits="userSpaceOnUse">
<stop stop-color="#2EBC89"/>
<stop offset="1" stop-color="#1DA473"/>
</linearGradient>
<linearGradient id="paint3_linear_10611_4589" x1="2.702" y1="0.216001" x2="8.86374" y2="16.5693" gradientUnits="userSpaceOnUse">
<stop stop-color="white" stop-opacity="0"/>
<stop offset="1" stop-color="white"/>
</linearGradient>
<linearGradient id="paint4_linear_10611_4589" x1="2.15416" y1="-0.0341866" x2="6.01044" y2="10.2265" gradientUnits="userSpaceOnUse">
<stop stop-color="white" stop-opacity="0"/>
<stop offset="1" stop-color="white"/>
</linearGradient>
<linearGradient id="paint5_linear_10611_4589" x1="13.9994" y1="0.5" x2="13.9994" y2="28.5" gradientUnits="userSpaceOnUse">
<stop stop-color="#2EBC89"/>
<stop offset="1" stop-color="#1DA473"/>
</linearGradient>
<linearGradient id="paint6_linear_10611_4589" x1="21.7267" y1="0.5" x2="21.7267" y2="9.77273" gradientUnits="userSpaceOnUse">
<stop stop-color="#23A476"/>
<stop offset="1" stop-color="#11835A"/>
</linearGradient>
</defs>
</svg>
