<svg width="12" height="12" viewBox="0 0 12 12" fill="none" xmlns="http://www.w3.org/2000/svg">
<path d="M4.5 11H7.5C10 11 11 10 11 7.5V4.5C11 2 10 1 7.5 1H4.5C2 1 1 2 1 4.5V7.5C1 10 2 11 4.5 11Z" stroke="#24A829" stroke-linecap="round" stroke-linejoin="round"/>
<path d="M4.55005 5.99975V5.25975C4.55005 4.30475 5.22505 3.91975 6.05005 4.39475L6.69005 4.76475L7.33005 5.13475C8.15505 5.60975 8.15505 6.38975 7.33005 6.86475L6.69005 7.23475L6.05005 7.60475C5.22505 8.07975 4.55005 7.68975 4.55005 6.73975V5.99975Z" stroke="#24A829" stroke-miterlimit="10" stroke-linecap="round" stroke-linejoin="round"/>
</svg>
