<svg width="20" height="21" viewBox="0 0 20 21" fill="none" xmlns="http://www.w3.org/2000/svg">
<path d="M8.33334 16.3333C8.33334 17.25 9.08334 18 10 18C10.9167 18 11.6667 17.25 11.6667 16.3333C11.6667 15.4167 10.9167 14.6667 10 14.6667C9.08334 14.6667 8.33334 15.4167 8.33334 16.3333Z" fill="#404040"/>
<path d="M8.33334 4.66634C8.33334 5.58301 9.08334 6.33301 10 6.33301C10.9167 6.33301 11.6667 5.58301 11.6667 4.66634C11.6667 3.74967 10.9167 2.99967 10 2.99967C9.08334 2.99967 8.33334 3.74967 8.33334 4.66634Z" fill="#404040"/>
<path d="M8.33334 10.5003C8.33334 11.417 9.08334 12.167 10 12.167C10.9167 12.167 11.6667 11.417 11.6667 10.5003C11.6667 9.58366 10.9167 8.83366 10 8.83366C9.08334 8.83366 8.33334 9.58366 8.33334 10.5003Z" fill="#404040"/>
</svg>
