<svg width="21" height="21" viewBox="0 0 21 21" fill="none" xmlns="http://www.w3.org/2000/svg">
<path d="M8.38332 9.55866C8.29999 9.55033 8.19999 9.55033 8.10832 9.55866C6.12499 9.49199 4.54999 7.86699 4.54999 5.86699C4.54999 3.82533 6.19999 2.16699 8.24999 2.16699C10.2917 2.16699 11.95 3.82533 11.95 5.86699C11.9417 7.86699 10.3667 9.49199 8.38332 9.55866Z" stroke="#ED0226" stroke-width="1.5" stroke-linecap="round" stroke-linejoin="round"/>
<path d="M14.425 3.83301C16.0417 3.83301 17.3417 5.14134 17.3417 6.74967C17.3417 8.32468 16.0917 9.60801 14.5333 9.66634C14.4667 9.65801 14.3917 9.65801 14.3167 9.66634" stroke="#ED0226" stroke-width="1.5" stroke-linecap="round" stroke-linejoin="round"/>
<path d="M4.21666 12.633C2.2 13.983 2.2 16.183 4.21666 17.5247C6.50833 19.058 10.2667 19.058 12.5583 17.5247C14.575 16.1747 14.575 13.9747 12.5583 12.633C10.275 11.108 6.51666 11.108 4.21666 12.633Z" stroke="#ED0226" stroke-width="1.5" stroke-linecap="round" stroke-linejoin="round"/>
<path d="M16.0333 17.167C16.6333 17.042 17.2 16.8003 17.6667 16.442C18.9667 15.467 18.9667 13.8587 17.6667 12.8837C17.2083 12.5337 16.65 12.3003 16.0583 12.167" stroke="#ED0226" stroke-width="1.5" stroke-linecap="round" stroke-linejoin="round"/>
</svg>
