<svg width="20" height="21" viewBox="0 0 20 21" fill="none" xmlns="http://www.w3.org/2000/svg">
<path d="M13.3334 11.2503V14.7503C13.3334 17.667 12.1667 18.8337 9.25002 18.8337H5.75002C2.83335 18.8337 1.66669 17.667 1.66669 14.7503V11.2503C1.66669 8.33366 2.83335 7.16699 5.75002 7.16699H9.25002C12.1667 7.16699 13.3334 8.33366 13.3334 11.2503Z" stroke="#404040" stroke-width="1.5" stroke-linecap="round" stroke-linejoin="round"/>
<path d="M18.3334 6.25033V9.75033C18.3334 12.667 17.1667 13.8337 14.25 13.8337H13.3334V11.2503C13.3334 8.33366 12.1667 7.16699 9.25002 7.16699H6.66669V6.25033C6.66669 3.33366 7.83335 2.16699 10.75 2.16699H14.25C17.1667 2.16699 18.3334 3.33366 18.3334 6.25033Z" stroke="#404040" stroke-width="1.5" stroke-linecap="round" stroke-linejoin="round"/>
</svg>
