<svg width="21" height="21" viewBox="0 0 21 21" fill="none" xmlns="http://www.w3.org/2000/svg">
<path d="M8.25008 18.8337H13.2501C17.4167 18.8337 19.0834 17.167 19.0834 13.0003V8.00033C19.0834 3.83366 17.4167 2.16699 13.2501 2.16699H8.25008C4.08341 2.16699 2.41675 3.83366 2.41675 8.00033V13.0003C2.41675 17.167 4.08341 18.8337 8.25008 18.8337Z" stroke="#C2C2C2" stroke-width="1.5" stroke-linecap="round" stroke-linejoin="round"/>
<path d="M8.33325 10.5002V9.2669C8.33325 7.67524 9.45825 7.03357 10.8333 7.82524L11.8999 8.4419L12.9666 9.05857C14.3416 9.85024 14.3416 11.1502 12.9666 11.9419L11.8999 12.5586L10.8333 13.1752C9.45825 13.9669 8.33325 13.3169 8.33325 11.7336V10.5002Z" stroke="#C2C2C2" stroke-width="1.5" stroke-miterlimit="10" stroke-linecap="round" stroke-linejoin="round"/>
</svg>
