<svg width="21" height="21" viewBox="0 0 21 21" fill="none" xmlns="http://www.w3.org/2000/svg">
<path d="M7.58341 16.3337H7.16675C3.83341 16.3337 2.16675 15.5003 2.16675 11.3337V7.16699C2.16675 3.83366 3.83341 2.16699 7.16675 2.16699H13.8334C17.1667 2.16699 18.8334 3.83366 18.8334 7.16699V11.3337C18.8334 14.667 17.1667 16.3337 13.8334 16.3337H13.4167C13.1584 16.3337 12.9084 16.4587 12.7501 16.667L11.5001 18.3337C10.9501 19.067 10.0501 19.067 9.50008 18.3337L8.25008 16.667C8.11675 16.4837 7.80841 16.3337 7.58341 16.3337Z" stroke="#C2C2C2" stroke-width="1.5" stroke-miterlimit="10" stroke-linecap="round" stroke-linejoin="round"/>
<path d="M13.8303 9.66667H13.8378" stroke="#C2C2C2" stroke-width="1.5" stroke-linecap="round" stroke-linejoin="round"/>
<path d="M10.4963 9.66667H10.5038" stroke="#C2C2C2" stroke-width="1.5" stroke-linecap="round" stroke-linejoin="round"/>
<path d="M7.16209 9.66667H7.16957" stroke="#C2C2C2" stroke-width="1.5" stroke-linecap="round" stroke-linejoin="round"/>
</svg>
