<svg width="20" height="21" viewBox="0 0 20 21" fill="none" xmlns="http://www.w3.org/2000/svg">
<path d="M18.6333 7.39102L18.3916 5.08268C18.0416 2.56602 16.9 1.54102 14.4583 1.54102H12.4916H11.2583H8.72495H7.49162H5.49162C3.04162 1.54102 1.90829 2.56602 1.54995 5.10768L1.32495 7.39935C1.24162 8.29102 1.48329 9.15768 2.00829 9.83268C2.64162 10.6577 3.61662 11.1243 4.69995 11.1243C5.74995 11.1243 6.75829 10.5993 7.39162 9.75768C7.95829 10.5993 8.92495 11.1243 9.99995 11.1243C11.075 11.1243 12.0166 10.6243 12.5916 9.79101C13.2333 10.616 14.225 11.1243 15.2583 11.1243C16.3666 11.1243 17.3666 10.6327 17.9916 9.76602C18.4916 9.09935 18.7166 8.25768 18.6333 7.39102Z" fill="url(#paint0_linear_10640_2478)"/>
<path d="M9.45831 14.3829C8.39998 14.4912 7.59998 15.3912 7.59998 16.4579V18.7412C7.59998 18.9662 7.78331 19.1496 8.00831 19.1496H11.9833C12.2083 19.1496 12.3916 18.9662 12.3916 18.7412V16.7496C12.4 15.0079 11.375 14.1829 9.45831 14.3829Z" fill="url(#paint1_linear_10640_2478)"/>
<path d="M17.8083 12.4991V14.9824C17.8083 17.2824 15.9417 19.1491 13.6417 19.1491C13.4167 19.1491 13.2333 18.9658 13.2333 18.7408V16.7491C13.2333 15.6824 12.9083 14.8491 12.275 14.2824C11.7167 13.7741 10.9583 13.5241 10.0167 13.5241C9.80832 13.5241 9.59998 13.5324 9.37498 13.5574C7.89165 13.7074 6.76665 14.9574 6.76665 16.4574V18.7408C6.76665 18.9658 6.58332 19.1491 6.35832 19.1491C4.05832 19.1491 2.19165 17.2824 2.19165 14.9824V12.5158C2.19165 11.9324 2.76665 11.5408 3.30832 11.7324C3.53332 11.8074 3.75832 11.8658 3.99165 11.8991C4.09165 11.9158 4.19998 11.9324 4.29998 11.9324C4.43332 11.9491 4.56665 11.9574 4.69998 11.9574C5.66665 11.9574 6.61665 11.5991 7.36665 10.9824C8.08332 11.5991 9.01665 11.9574 9.99998 11.9574C10.9917 11.9574 11.9083 11.6158 12.625 10.9991C13.375 11.6074 14.3083 11.9574 15.2583 11.9574C15.4083 11.9574 15.5583 11.9491 15.7 11.9324C15.8 11.9241 15.8916 11.9158 15.9833 11.8991C16.2416 11.8658 16.475 11.7908 16.7083 11.7158C17.25 11.5324 17.8083 11.9324 17.8083 12.4991Z" fill="url(#paint2_linear_10640_2478)"/>
<defs>
<linearGradient id="paint0_linear_10640_2478" x1="28.1328" y1="16.8444" x2="19.8542" y2="-5.37023" gradientUnits="userSpaceOnUse">
<stop stop-color="#FFC79F"/>
<stop offset="0.528793" stop-color="#FF5050"/>
<stop offset="1" stop-color="#ED0226"/>
</linearGradient>
<linearGradient id="paint1_linear_10640_2478" x1="15.0119" y1="22.0122" x2="9.14064" y2="13.3136" gradientUnits="userSpaceOnUse">
<stop stop-color="#FFC79F"/>
<stop offset="0.528793" stop-color="#FF5050"/>
<stop offset="1" stop-color="#ED0226"/>
</linearGradient>
<linearGradient id="paint2_linear_10640_2478" x1="26.3478" y1="24.0236" x2="19.5856" y2="4.8484" gradientUnits="userSpaceOnUse">
<stop stop-color="#FFC79F"/>
<stop offset="0.528793" stop-color="#FF5050"/>
<stop offset="1" stop-color="#ED0226"/>
</linearGradient>
</defs>
</svg>
