<svg width="21" height="21" viewBox="0 0 21 21" fill="none" xmlns="http://www.w3.org/2000/svg">
<path d="M14.6667 2.16699H6.33342C4.03341 2.16699 2.16675 4.02533 2.16675 6.31699V11.3003V12.1337C2.16675 14.4253 4.03341 16.2837 6.33342 16.2837H7.58342C7.80841 16.2837 8.10842 16.4337 8.25008 16.617L9.50008 18.2753C10.0501 19.0087 10.9501 19.0087 11.5001 18.2753L12.7501 16.617C12.9084 16.4087 13.1584 16.2837 13.4167 16.2837H14.6667C16.9667 16.2837 18.8334 14.4253 18.8334 12.1337V6.31699C18.8334 4.02533 16.9667 2.16699 14.6667 2.16699ZM7.16675 10.5003C6.70008 10.5003 6.33342 10.1253 6.33342 9.66699C6.33342 9.20866 6.70842 8.83366 7.16675 8.83366C7.62508 8.83366 8.00008 9.20866 8.00008 9.66699C8.00008 10.1253 7.63341 10.5003 7.16675 10.5003ZM10.5001 10.5003C10.0334 10.5003 9.66675 10.1253 9.66675 9.66699C9.66675 9.20866 10.0417 8.83366 10.5001 8.83366C10.9584 8.83366 11.3334 9.20866 11.3334 9.66699C11.3334 10.1253 10.9667 10.5003 10.5001 10.5003ZM13.8334 10.5003C13.3667 10.5003 13.0001 10.1253 13.0001 9.66699C13.0001 9.20866 13.3751 8.83366 13.8334 8.83366C14.2917 8.83366 14.6667 9.20866 14.6667 9.66699C14.6667 10.1253 14.3001 10.5003 13.8334 10.5003Z" fill="url(#paint0_linear_10315_1937)"/>
<defs>
<linearGradient id="paint0_linear_10315_1937" x1="27.947" y1="28.7683" x2="7.56484" y2="-1.47143" gradientUnits="userSpaceOnUse">
<stop stop-color="#FFC79F"/>
<stop offset="0.528793" stop-color="#FF5050"/>
<stop offset="1" stop-color="#ED0226"/>
</linearGradient>
</defs>
</svg>
