<svg width="21" height="21" viewBox="0 0 21 21" fill="none" xmlns="http://www.w3.org/2000/svg">
<path d="M14.2416 2.16602H7.25829C4.22496 2.16602 2.41663 3.97435 2.41663 7.00768V13.9827C2.41663 17.0244 4.22496 18.8327 7.25829 18.8327H14.2333C17.2666 18.8327 19.075 17.0244 19.075 13.991V7.00768C19.0833 3.97435 17.275 2.16602 14.2416 2.16602ZM12.9666 11.941L11.9 12.5577L10.8333 13.1743C9.45829 13.966 8.33329 13.316 8.33329 11.7327V10.4993V9.26602C8.33329 7.67435 9.45829 7.03268 10.8333 7.82435L11.9 8.44102L12.9666 9.05768C14.3416 9.84935 14.3416 11.1493 12.9666 11.941Z" fill="url(#paint0_linear_10518_2919)"/>
<defs>
<linearGradient id="paint0_linear_10518_2919" x1="28.1841" y1="28.7806" x2="7.78404" y2="-1.45535" gradientUnits="userSpaceOnUse">
<stop stop-color="#FFC79F"/>
<stop offset="0.528793" stop-color="#FF5050"/>
<stop offset="1" stop-color="#ED0226"/>
</linearGradient>
</defs>
</svg>
