<svg width="21" height="21" viewBox="0 0 21 21" fill="none" xmlns="http://www.w3.org/2000/svg">
<g clip-path="url(#clip0_10364_748)">
<path d="M18.8084 15.7753C18.8084 16.0753 18.7417 16.3837 18.6001 16.6837C18.4584 16.9837 18.2751 17.267 18.0334 17.5337C17.6251 17.9837 17.1751 18.3087 16.6667 18.517C16.1667 18.7253 15.6251 18.8337 15.0417 18.8337C14.1917 18.8337 13.2834 18.6337 12.3251 18.2253C11.3667 17.817 10.4084 17.267 9.45842 16.5753C8.50008 15.8753 7.59175 15.1003 6.72508 14.242C5.86675 13.3753 5.09175 12.467 4.40008 11.517C3.71675 10.567 3.16675 9.61699 2.76675 8.67533C2.36675 7.72533 2.16675 6.81699 2.16675 5.95033C2.16675 5.38366 2.26675 4.84199 2.46675 4.34199C2.66675 3.83366 2.98341 3.36699 3.42508 2.95033C3.95841 2.42533 4.54175 2.16699 5.15842 2.16699C5.39175 2.16699 5.62508 2.21699 5.83342 2.31699C6.05008 2.41699 6.24175 2.56699 6.39175 2.78366L8.32508 5.50866C8.47508 5.71699 8.58342 5.90866 8.65841 6.09199C8.73342 6.26699 8.77508 6.44199 8.77508 6.60033C8.77508 6.80033 8.71675 7.00033 8.60008 7.19199C8.49175 7.38366 8.33342 7.58366 8.13341 7.78366L7.50008 8.44199C7.40841 8.53366 7.36675 8.64199 7.36675 8.77533C7.36675 8.84199 7.37508 8.90033 7.39175 8.96699C7.41675 9.03366 7.44175 9.08366 7.45842 9.13366C7.60842 9.40866 7.86675 9.76699 8.23341 10.2003C8.60841 10.6337 9.00841 11.0753 9.44175 11.517C9.89175 11.9587 10.3251 12.367 10.7667 12.742C11.2001 13.1087 11.5584 13.3587 11.8417 13.5087C11.8834 13.5253 11.9334 13.5503 11.9917 13.5753C12.0584 13.6003 12.1251 13.6087 12.2001 13.6087C12.3417 13.6087 12.4501 13.5587 12.5417 13.467L13.1751 12.842C13.3834 12.6337 13.5834 12.4753 13.7751 12.3753C13.9667 12.2587 14.1584 12.2003 14.3667 12.2003C14.5251 12.2003 14.6917 12.2337 14.8751 12.3087C15.0584 12.3837 15.2501 12.492 15.4584 12.6337L18.2167 14.592C18.4334 14.742 18.5834 14.917 18.6751 15.1253C18.7584 15.3337 18.8084 15.542 18.8084 15.7753Z" fill="url(#paint0_linear_10364_748)"/>
</g>
<defs>
<linearGradient id="paint0_linear_10364_748" x1="27.9084" y1="28.7816" x2="7.50068" y2="-1.43539" gradientUnits="userSpaceOnUse">
<stop stop-color="#FFC79F"/>
<stop offset="0.528793" stop-color="#FF5050"/>
<stop offset="1" stop-color="#ED0226"/>
</linearGradient>
<clipPath id="clip0_10364_748">
<rect width="20" height="20" fill="white" transform="translate(0.5 0.5)"/>
</clipPath>
</defs>
</svg>
