<svg width="21" height="21" viewBox="0 0 21 21" fill="none" xmlns="http://www.w3.org/2000/svg">
<path d="M3.0083 9.84961V13.5913C3.0083 17.3329 4.5083 18.8329 8.24997 18.8329H12.7416C16.4833 18.8329 17.9833 17.3329 17.9833 13.5913V9.84961" stroke="#C2C2C2" stroke-width="1.5" stroke-linecap="round" stroke-linejoin="round"/>
<path d="M10.5 10.5003C12.025 10.5003 13.15 9.25866 13 7.73366L12.45 2.16699H8.55832L7.99999 7.73366C7.84999 9.25866 8.97499 10.5003 10.5 10.5003Z" stroke="#C2C2C2" stroke-width="1.5" stroke-linecap="round" stroke-linejoin="round"/>
<path d="M15.7584 10.5003C17.4417 10.5003 18.6751 9.13366 18.5084 7.45866L18.2751 5.16699C17.9751 3.00033 17.1417 2.16699 14.9584 2.16699H12.4167L13.0001 8.00866C13.1417 9.38366 14.3834 10.5003 15.7584 10.5003Z" stroke="#C2C2C2" stroke-width="1.5" stroke-linecap="round" stroke-linejoin="round"/>
<path d="M5.1999 10.5003C6.5749 10.5003 7.81657 9.38366 7.9499 8.00866L8.13324 6.16699L8.53324 2.16699H5.99157C3.80824 2.16699 2.9749 3.00033 2.6749 5.16699L2.4499 7.45866C2.28324 9.13366 3.51657 10.5003 5.1999 10.5003Z" stroke="#C2C2C2" stroke-width="1.5" stroke-linecap="round" stroke-linejoin="round"/>
<path d="M10.5001 14.667C9.10841 14.667 8.41675 15.3587 8.41675 16.7503V18.8337H12.5834V16.7503C12.5834 15.3587 11.8917 14.667 10.5001 14.667Z" stroke="#C2C2C2" stroke-width="1.5" stroke-linecap="round" stroke-linejoin="round"/>
</svg>
